<?xml version="1.0" standalone="no"?>
<svg xmlns:xlink="http://www.w3.org/1999/xlink" width="2480" height="3508" xmlns="http://www.w3.org/2000/svg"><path d="M1234,1861L1251,2097L1468,1893Z" fill="rgb(83,204,157)" stroke="rgb(83,204,157)" stroke-width="1.51"/><path d="M1251,2097L1453,2116L1468,1893Z" fill="rgb(74,201,159)" stroke="rgb(74,201,159)" stroke-width="1.51"/><path d="M1725,1856L1528,1660L1468,1893Z" fill="rgb(76,200,159)" stroke="rgb(76,200,159)" stroke-width="1.51"/><path d="M1468,1893L1528,1660L1234,1861Z" fill="rgb(83,204,157)" stroke="rgb(83,204,157)" stroke-width="1.51"/><path d="M1251,2097L1274,2337L1453,2116Z" fill="rgb(73,200,159)" stroke="rgb(73,200,159)" stroke-width="1.51"/><path d="M1234,1861L972,2080L1251,2097Z" fill="rgb(90,206,155)" stroke="rgb(90,206,155)" stroke-width="1.51"/><path d="M1251,2097L972,2080L1274,2337Z" fill="rgb(84,204,156)" stroke="rgb(84,204,156)" stroke-width="1.51"/><path d="M940,1603L963,1870L1234,1861Z" fill="rgb(105,212,150)" stroke="rgb(105,212,150)" stroke-width="1.51"/><path d="M1234,1861L963,1870L972,2080Z" fill="rgb(99,210,152)" stroke="rgb(99,210,152)" stroke-width="1.51"/><path d="M1274,2337L1472,2341L1453,2116Z" fill="rgb(66,197,161)" stroke="rgb(66,197,161)" stroke-width="1.51"/><path d="M1722,2164L1725,1856L1468,1893Z" fill="rgb(65,196,161)" stroke="rgb(65,196,161)" stroke-width="1.51"/><path d="M1528,1660L1253,1581L1234,1861Z" fill="rgb(92,207,154)" stroke="rgb(92,207,154)" stroke-width="1.51"/><path d="M1722,2164L1468,1893L1453,2116Z" fill="rgb(63,197,161)" stroke="rgb(63,197,161)" stroke-width="1.51"/><path d="M1472,2341L1722,2164L1453,2116Z" fill="rgb(58,195,162)" stroke="rgb(58,195,162)" stroke-width="1.51"/><path d="M1725,1856L1719,1592L1528,1660Z" fill="rgb(79,200,158)" stroke="rgb(79,200,158)" stroke-width="1.51"/><path d="M1528,1660L1463,1397L1253,1581Z" fill="rgb(94,208,154)" stroke="rgb(94,208,154)" stroke-width="1.51"/><path d="M1253,1581L940,1603L1234,1861Z" fill="rgb(104,212,151)" stroke="rgb(104,212,151)" stroke-width="1.51"/><path d="M739,1921L760,2099L972,2080Z" fill="rgb(112,212,150)" stroke="rgb(112,212,150)" stroke-width="1.51"/><path d="M972,2080L1028,2421L1274,2337Z" fill="rgb(87,203,156)" stroke="rgb(87,203,156)" stroke-width="1.51"/><path d="M1282,2626L1507,2589L1472,2341Z" fill="rgb(58,193,163)" stroke="rgb(58,193,163)" stroke-width="1.51"/><path d="M1507,2589L1691,2395L1472,2341Z" fill="rgb(51,191,164)" stroke="rgb(51,191,164)" stroke-width="1.51"/><path d="M1472,2341L1691,2395L1722,2164Z" fill="rgb(52,191,164)" stroke="rgb(52,191,164)" stroke-width="1.51"/><path d="M1719,1592L1463,1397L1528,1660Z" fill="rgb(88,204,156)" stroke="rgb(88,204,156)" stroke-width="1.51"/><path d="M1253,1581L983,1367L940,1603Z" fill="rgb(114,216,147)" stroke="rgb(114,216,147)" stroke-width="1.51"/><path d="M739,1921L972,2080L963,1870Z" fill="rgb(110,212,150)" stroke="rgb(110,212,150)" stroke-width="1.51"/><path d="M972,2080L724,2380L1028,2421Z" fill="rgb(100,207,153)" stroke="rgb(100,207,153)" stroke-width="1.51"/><path d="M787,1584L739,1921L963,1870Z" fill="rgb(120,216,147)" stroke="rgb(120,216,147)" stroke-width="1.51"/><path d="M1463,1397L1243,1344L1253,1581Z" fill="rgb(104,211,151)" stroke="rgb(104,211,151)" stroke-width="1.51"/><path d="M1282,2626L1472,2341L1274,2337Z" fill="rgb(67,196,161)" stroke="rgb(67,196,161)" stroke-width="1.51"/><path d="M1974,2091L1977,1909L1725,1856Z" fill="rgb(58,191,163)" stroke="rgb(58,191,163)" stroke-width="1.51"/><path d="M1725,1856L1951,1592L1719,1592Z" fill="rgb(76,197,159)" stroke="rgb(76,197,159)" stroke-width="1.51"/><path d="M1974,2091L1725,1856L1722,2164Z" fill="rgb(55,192,163)" stroke="rgb(55,192,163)" stroke-width="1.51"/><path d="M1993,2334L1974,2091L1722,2164Z" fill="rgb(44,187,165)" stroke="rgb(44,187,165)" stroke-width="1.51"/><path d="M1028,2421L1282,2626L1274,2337Z" fill="rgb(77,198,159)" stroke="rgb(77,198,159)" stroke-width="1.51"/><path d="M983,1367L787,1584L940,1603Z" fill="rgb(124,219,145)" stroke="rgb(124,219,145)" stroke-width="1.51"/><path d="M940,1603L787,1584L963,1870Z" fill="rgb(119,216,147)" stroke="rgb(119,216,147)" stroke-width="1.51"/><path d="M1243,1344L983,1367L1253,1581Z" fill="rgb(112,215,148)" stroke="rgb(112,215,148)" stroke-width="1.51"/><path d="M776,2611L986,2589L1028,2421Z" fill="rgb(95,202,155)" stroke="rgb(95,202,155)" stroke-width="1.51"/><path d="M1028,2421L986,2589L1282,2626Z" fill="rgb(82,199,158)" stroke="rgb(82,199,158)" stroke-width="1.51"/><path d="M1977,1909L1951,1592L1725,1856Z" fill="rgb(68,193,161)" stroke="rgb(68,193,161)" stroke-width="1.51"/><path d="M1719,1592L1761,1365L1463,1397Z" fill="rgb(90,204,155)" stroke="rgb(90,204,155)" stroke-width="1.51"/><path d="M520,2175L724,2380L760,2099Z" fill="rgb(120,212,149)" stroke="rgb(120,212,149)" stroke-width="1.51"/><path d="M760,2099L724,2380L972,2080Z" fill="rgb(109,210,151)" stroke="rgb(109,210,151)" stroke-width="1.51"/><path d="M1951,1592L1761,1365L1719,1592Z" fill="rgb(84,199,158)" stroke="rgb(84,199,158)" stroke-width="1.51"/><path d="M1519,1084L1243,1098L1243,1344Z" fill="rgb(117,214,148)" stroke="rgb(117,214,148)" stroke-width="1.51"/><path d="M1972,2588L1993,2334L1691,2395Z" fill="rgb(36,183,167)" stroke="rgb(36,183,167)" stroke-width="1.51"/><path d="M1691,2395L1993,2334L1722,2164Z" fill="rgb(45,187,165)" stroke="rgb(45,187,165)" stroke-width="1.51"/><path d="M1974,2091L2208,1897L1977,1909Z" fill="rgb(54,187,164)" stroke="rgb(54,187,164)" stroke-width="1.51"/><path d="M1446,2893L1726,2632L1507,2589Z" fill="rgb(43,186,166)" stroke="rgb(43,186,166)" stroke-width="1.51"/><path d="M1507,2589L1726,2632L1691,2395Z" fill="rgb(44,187,165)" stroke="rgb(44,187,165)" stroke-width="1.51"/><path d="M461,1876L520,2175L739,1921Z" fill="rgb(132,217,145)" stroke="rgb(132,217,145)" stroke-width="1.51"/><path d="M739,1921L520,2175L760,2099Z" fill="rgb(122,214,147)" stroke="rgb(122,214,147)" stroke-width="1.51"/><path d="M773,1084L746,1372L983,1367Z" fill="rgb(138,223,140)" stroke="rgb(138,223,140)" stroke-width="1.51"/><path d="M983,1367L746,1372L787,1584Z" fill="rgb(131,221,143)" stroke="rgb(131,221,143)" stroke-width="1.51"/><path d="M497,1583L461,1876L739,1921Z" fill="rgb(138,220,142)" stroke="rgb(138,220,142)" stroke-width="1.51"/><path d="M724,2380L776,2611L1028,2421Z" fill="rgb(103,205,153)" stroke="rgb(103,205,153)" stroke-width="1.51"/><path d="M1013,2859L1258,2841L1282,2626Z" fill="rgb(72,193,161)" stroke="rgb(72,193,161)" stroke-width="1.51"/><path d="M510,2678L776,2611L724,2380Z" fill="rgb(115,206,151)" stroke="rgb(115,206,151)" stroke-width="1.51"/><path d="M1013,2859L1282,2626L986,2589Z" fill="rgb(80,196,159)" stroke="rgb(80,196,159)" stroke-width="1.51"/><path d="M1282,2626L1446,2893L1507,2589Z" fill="rgb(54,190,164)" stroke="rgb(54,190,164)" stroke-width="1.51"/><path d="M2252,1596L2016,1422L1951,1592Z" fill="rgb(78,192,159)" stroke="rgb(78,192,159)" stroke-width="1.51"/><path d="M1951,1592L2016,1422L1761,1365Z" fill="rgb(84,198,158)" stroke="rgb(84,198,158)" stroke-width="1.51"/><path d="M2208,1897L1951,1592L1977,1909Z" fill="rgb(64,189,162)" stroke="rgb(64,189,162)" stroke-width="1.51"/><path d="M2286,2137L2208,1897L1974,2091Z" fill="rgb(48,183,165)" stroke="rgb(48,183,165)" stroke-width="1.51"/><path d="M1519,1084L1243,1344L1463,1397Z" fill="rgb(108,212,150)" stroke="rgb(108,212,150)" stroke-width="1.51"/><path d="M1243,1344L1019,1095L983,1367Z" fill="rgb(124,219,145)" stroke="rgb(124,219,145)" stroke-width="1.51"/><path d="M1694,1158L1463,1397L1761,1365Z" fill="rgb(98,206,154)" stroke="rgb(98,206,154)" stroke-width="1.51"/><path d="M497,1583L739,1921L787,1584Z" fill="rgb(134,220,143)" stroke="rgb(134,220,143)" stroke-width="1.51"/><path d="M1726,2632L1972,2588L1691,2395Z" fill="rgb(37,184,167)" stroke="rgb(37,184,167)" stroke-width="1.51"/><path d="M1993,2334L2286,2137L1974,2091Z" fill="rgb(40,183,166)" stroke="rgb(40,183,166)" stroke-width="1.51"/><path d="M1940,2832L1972,2588L1726,2632Z" fill="rgb(24,179,168)" stroke="rgb(24,179,168)" stroke-width="1.51"/><path d="M2017,1118L1694,1158L1761,1365Z" fill="rgb(100,203,154)" stroke="rgb(100,203,154)" stroke-width="1.51"/><path d="M198,2371L521,2346L520,2175Z" fill="rgb(138,215,145)" stroke="rgb(138,215,145)" stroke-width="1.51"/><path d="M520,2175L521,2346L724,2380Z" fill="rgb(125,212,148)" stroke="rgb(125,212,148)" stroke-width="1.51"/><path d="M1694,1158L1519,1084L1463,1397Z" fill="rgb(106,209,152)" stroke="rgb(106,209,152)" stroke-width="1.51"/><path d="M746,1372L497,1583L787,1584Z" fill="rgb(139,223,141)" stroke="rgb(139,223,141)" stroke-width="1.51"/><path d="M1258,2841L1446,2893L1282,2626Z" fill="rgb(60,190,163)" stroke="rgb(60,190,163)" stroke-width="1.51"/><path d="M1243,1098L1019,1095L1243,1344Z" fill="rgb(124,218,145)" stroke="rgb(124,218,145)" stroke-width="1.51"/><path d="M746,1372L481,1375L497,1583Z" fill="rgb(148,226,138)" stroke="rgb(148,226,138)" stroke-width="1.51"/><path d="M1271,846L1019,1095L1243,1098Z" fill="rgb(132,220,143)" stroke="rgb(132,220,143)" stroke-width="1.51"/><path d="M705,2862L1013,2859L776,2611Z" fill="rgb(99,200,155)" stroke="rgb(99,200,155)" stroke-width="1.51"/><path d="M776,2611L1013,2859L986,2589Z" fill="rgb(93,200,156)" stroke="rgb(93,200,156)" stroke-width="1.51"/><path d="M1258,2841L1259,3157L1446,2893Z" fill="rgb(60,187,163)" stroke="rgb(60,187,163)" stroke-width="1.51"/><path d="M2287,2352L2286,2137L1993,2334Z" fill="rgb(37,179,166)" stroke="rgb(37,179,166)" stroke-width="1.51"/><path d="M2208,1897L2252,1596L1951,1592Z" fill="rgb(70,189,161)" stroke="rgb(70,189,161)" stroke-width="1.51"/><path d="M2016,1422L2017,1118L1761,1365Z" fill="rgb(92,199,157)" stroke="rgb(92,199,157)" stroke-width="1.51"/><path d="M2488,1889L2252,1596L2208,1897Z" fill="rgb(65,183,162)" stroke="rgb(65,183,162)" stroke-width="1.51"/><path d="M1446,2893L1781,2860L1726,2632Z" fill="rgb(35,183,167)" stroke="rgb(35,183,167)" stroke-width="1.51"/><path d="M2190,2617L1993,2334L1972,2588Z" fill="rgb(26,178,168)" stroke="rgb(26,178,168)" stroke-width="1.51"/><path d="M2190,2617L2287,2352L1993,2334Z" fill="rgb(30,177,167)" stroke="rgb(30,177,167)" stroke-width="1.51"/><path d="M2252,1596L2226,1428L2016,1422Z" fill="rgb(81,191,159)" stroke="rgb(81,191,159)" stroke-width="1.51"/><path d="M465,1135L481,1375L746,1372Z" fill="rgb(154,228,136)" stroke="rgb(154,228,136)" stroke-width="1.51"/><path d="M198,1860L226,2103L461,1876Z" fill="rgb(155,222,141)" stroke="rgb(155,222,141)" stroke-width="1.51"/><path d="M1781,2860L1940,2832L1726,2632Z" fill="rgb(24,179,168)" stroke="rgb(24,179,168)" stroke-width="1.51"/><path d="M950,905L773,1084L1019,1095Z" fill="rgb(144,225,139)" stroke="rgb(144,225,139)" stroke-width="1.51"/><path d="M1019,1095L773,1084L983,1367Z" fill="rgb(136,223,141)" stroke="rgb(136,223,141)" stroke-width="1.51"/><path d="M1940,2832L2190,2617L1972,2588Z" fill="rgb(14,176,169)" stroke="rgb(14,176,169)" stroke-width="1.51"/><path d="M262,2609L510,2678L521,2346Z" fill="rgb(133,210,147)" stroke="rgb(133,210,147)" stroke-width="1.51"/><path d="M521,2346L510,2678L724,2380Z" fill="rgb(123,209,149)" stroke="rgb(123,209,149)" stroke-width="1.51"/><path d="M2226,1428L2017,1118L2016,1422Z" fill="rgb(90,195,157)" stroke="rgb(90,195,157)" stroke-width="1.51"/><path d="M1738,886L1457,854L1519,1084Z" fill="rgb(120,212,149)" stroke="rgb(120,212,149)" stroke-width="1.51"/><path d="M510,2678L705,2862L776,2611Z" fill="rgb(113,204,152)" stroke="rgb(113,204,152)" stroke-width="1.51"/><path d="M1013,2859L1259,3157L1258,2841Z" fill="rgb(72,190,161)" stroke="rgb(72,190,161)" stroke-width="1.51"/><path d="M198,1860L461,1876L225,1650Z" fill="rgb(159,224,139)" stroke="rgb(159,224,139)" stroke-width="1.51"/><path d="M461,1876L226,2103L520,2175Z" fill="rgb(143,219,143)" stroke="rgb(143,219,143)" stroke-width="1.51"/><path d="M1738,886L1519,1084L1694,1158Z" fill="rgb(113,209,151)" stroke="rgb(113,209,151)" stroke-width="1.51"/><path d="M1519,1084L1457,854L1243,1098Z" fill="rgb(122,215,147)" stroke="rgb(122,215,147)" stroke-width="1.51"/><path d="M1457,854L1271,846L1243,1098Z" fill="rgb(129,218,145)" stroke="rgb(129,218,145)" stroke-width="1.51"/><path d="M1271,846L950,905L1019,1095Z" fill="rgb(139,223,141)" stroke="rgb(139,223,141)" stroke-width="1.51"/><path d="M465,1135L276,1422L481,1375Z" fill="rgb(164,230,134)" stroke="rgb(164,230,134)" stroke-width="1.51"/><path d="M225,1650L461,1876L497,1583Z" fill="rgb(153,224,139)" stroke="rgb(153,224,139)" stroke-width="1.51"/><path d="M2532,2097L2488,1889L2286,2137Z" fill="rgb(49,176,164)" stroke="rgb(49,176,164)" stroke-width="1.51"/><path d="M2286,2137L2488,1889L2208,1897Z" fill="rgb(53,180,163)" stroke="rgb(53,180,163)" stroke-width="1.51"/><path d="M2252,1596L2446,1427L2226,1428Z" fill="rgb(80,187,158)" stroke="rgb(80,187,158)" stroke-width="1.51"/><path d="M2532,2097L2286,2137L2481,2390Z" fill="rgb(40,174,165)" stroke="rgb(40,174,165)" stroke-width="1.51"/><path d="M2017,1118L1738,886L1694,1158Z" fill="rgb(109,205,152)" stroke="rgb(109,205,152)" stroke-width="1.51"/><path d="M276,1422L225,1650L497,1583Z" fill="rgb(162,227,136)" stroke="rgb(162,227,136)" stroke-width="1.51"/><path d="M510,2678L539,2845L705,2862Z" fill="rgb(118,204,151)" stroke="rgb(118,204,151)" stroke-width="1.51"/><path d="M244,2881L539,2845L510,2678Z" fill="rgb(130,206,149)" stroke="rgb(130,206,149)" stroke-width="1.51"/><path d="M986,3145L1013,2859L705,2862Z" fill="rgb(93,196,157)" stroke="rgb(93,196,157)" stroke-width="1.51"/><path d="M986,3145L1259,3157L1013,2859Z" fill="rgb(78,190,159)" stroke="rgb(78,190,159)" stroke-width="1.51"/><path d="M1446,2893L1754,3141L1781,2860Z" fill="rgb(34,180,167)" stroke="rgb(34,180,167)" stroke-width="1.51"/><path d="M1781,2860L1989,3084L1940,2832Z" fill="rgb(13,175,169)" stroke="rgb(13,175,169)" stroke-width="1.51"/><path d="M1259,3157L1451,3160L1446,2893Z" fill="rgb(54,184,164)" stroke="rgb(54,184,164)" stroke-width="1.51"/><path d="M465,1135L746,1372L773,1084Z" fill="rgb(152,227,136)" stroke="rgb(152,227,136)" stroke-width="1.51"/><path d="M481,1375L276,1422L497,1583Z" fill="rgb(158,228,136)" stroke="rgb(158,228,136)" stroke-width="1.51"/><path d="M2481,2390L2286,2137L2287,2352Z" fill="rgb(37,174,166)" stroke="rgb(37,174,166)" stroke-width="1.51"/><path d="M2751,1842L2499,1650L2488,1889Z" fill="rgb(65,179,161)" stroke="rgb(65,179,161)" stroke-width="1.51"/><path d="M2488,1889L2499,1650L2252,1596Z" fill="rgb(69,181,161)" stroke="rgb(69,181,161)" stroke-width="1.51"/><path d="M2226,1428L2227,1108L2017,1118Z" fill="rgb(96,194,156)" stroke="rgb(96,194,156)" stroke-width="1.51"/><path d="M8,2156L198,2371L226,2103Z" fill="rgb(161,220,142)" stroke="rgb(161,220,142)" stroke-width="1.51"/><path d="M226,2103L198,2371L520,2175Z" fill="rgb(147,217,144)" stroke="rgb(147,217,144)" stroke-width="1.51"/><path d="M474,864L465,1135L773,1084Z" fill="rgb(165,231,132)" stroke="rgb(165,231,132)" stroke-width="1.51"/><path d="M2536,2667L2481,2390L2190,2617Z" fill="rgb(24,169,167)" stroke="rgb(24,169,167)" stroke-width="1.51"/><path d="M2190,2617L2481,2390L2287,2352Z" fill="rgb(30,172,167)" stroke="rgb(30,172,167)" stroke-width="1.51"/><path d="M708,3175L986,3145L705,2862Z" fill="rgb(101,195,155)" stroke="rgb(101,195,155)" stroke-width="1.51"/><path d="M2499,1650L2446,1427L2252,1596Z" fill="rgb(77,184,159)" stroke="rgb(77,184,159)" stroke-width="1.51"/><path d="M2017,1118L2024,864L1738,886Z" fill="rgb(112,203,152)" stroke="rgb(112,203,152)" stroke-width="1.51"/><path d="M2446,1427L2227,1108L2226,1428Z" fill="rgb(89,190,157)" stroke="rgb(89,190,157)" stroke-width="1.51"/><path d="M1451,3160L1754,3141L1446,2893Z" fill="rgb(40,180,166)" stroke="rgb(40,180,166)" stroke-width="1.51"/><path d="M1940,2832L2266,2835L2190,2617Z" fill="rgb(6,172,169)" stroke="rgb(6,172,169)" stroke-width="1.51"/><path d="M198,2371L262,2609L521,2346Z" fill="rgb(144,213,146)" stroke="rgb(144,213,146)" stroke-width="1.51"/><path d="M1989,3084L2266,2835L1940,2832Z" fill="rgb(1,171,170)" stroke="rgb(1,171,170)" stroke-width="1.51"/><path d="M1754,3141L1989,3084L1781,2860Z" fill="rgb(20,174,168)" stroke="rgb(20,174,168)" stroke-width="1.51"/><path d="M2227,1108L2024,864L2017,1118Z" fill="rgb(107,198,154)" stroke="rgb(107,198,154)" stroke-width="1.51"/><path d="M1482,630L1263,659L1457,854Z" fill="rgb(136,219,143)" stroke="rgb(136,219,143)" stroke-width="1.51"/><path d="M1457,854L1263,659L1271,846Z" fill="rgb(136,219,143)" stroke="rgb(136,219,143)" stroke-width="1.51"/><path d="M968,677L710,830L950,905Z" fill="rgb(156,228,135)" stroke="rgb(156,228,135)" stroke-width="1.51"/><path d="M950,905L710,830L773,1084Z" fill="rgb(154,228,136)" stroke="rgb(154,228,136)" stroke-width="1.51"/><path d="M968,677L950,905L1271,846Z" fill="rgb(146,225,139)" stroke="rgb(146,225,139)" stroke-width="1.51"/><path d="M-44,1666L35,1891L198,1860Z" fill="rgb(176,227,136)" stroke="rgb(176,227,136)" stroke-width="1.51"/><path d="M198,1860L35,1891L226,2103Z" fill="rgb(166,224,139)" stroke="rgb(166,224,139)" stroke-width="1.51"/><path d="M198,2371L-41,2633L262,2609Z" fill="rgb(157,214,145)" stroke="rgb(157,214,145)" stroke-width="1.51"/><path d="M-44,1666L198,1860L225,1650Z" fill="rgb(173,227,136)" stroke="rgb(173,227,136)" stroke-width="1.51"/><path d="M1482,630L1457,854L1713,638Z" fill="rgb(132,215,145)" stroke="rgb(132,215,145)" stroke-width="1.51"/><path d="M35,1891L8,2156L226,2103Z" fill="rgb(168,223,140)" stroke="rgb(168,223,140)" stroke-width="1.51"/><path d="M1263,659L968,677L1271,846Z" fill="rgb(145,223,139)" stroke="rgb(145,223,139)" stroke-width="1.51"/><path d="M1713,638L1457,854L1738,886Z" fill="rgb(126,212,147)" stroke="rgb(126,212,147)" stroke-width="1.51"/><path d="M770,389L710,601L968,677Z" fill="rgb(172,232,131)" stroke="rgb(172,232,131)" stroke-width="1.51"/><path d="M477,3110L705,2862L539,2845Z" fill="rgb(119,201,151)" stroke="rgb(119,201,151)" stroke-width="1.51"/><path d="M477,3110L708,3175L705,2862Z" fill="rgb(114,198,152)" stroke="rgb(114,198,152)" stroke-width="1.51"/><path d="M983,3340L1281,3361L1259,3157Z" fill="rgb(72,184,160)" stroke="rgb(72,184,160)" stroke-width="1.51"/><path d="M1259,3157L1281,3361L1451,3160Z" fill="rgb(59,182,163)" stroke="rgb(59,182,163)" stroke-width="1.51"/><path d="M2787,2339L2700,2089L2532,2097Z" fill="rgb(41,173,165)" stroke="rgb(41,173,165)" stroke-width="1.51"/><path d="M2532,2097L2700,2089L2488,1889Z" fill="rgb(50,175,164)" stroke="rgb(50,175,164)" stroke-width="1.51"/><path d="M2499,1650L2735,1377L2446,1427Z" fill="rgb(80,183,158)" stroke="rgb(80,183,158)" stroke-width="1.51"/><path d="M2787,2339L2532,2097L2481,2390Z" fill="rgb(37,171,165)" stroke="rgb(37,171,165)" stroke-width="1.51"/><path d="M2530,2841L2536,2667L2266,2835Z" fill="rgb(5,164,169)" stroke="rgb(5,164,169)" stroke-width="1.51"/><path d="M2266,2835L2536,2667L2190,2617Z" fill="rgb(13,168,168)" stroke="rgb(13,168,168)" stroke-width="1.51"/><path d="M1975,622L1713,638L1738,886Z" fill="rgb(127,209,148)" stroke="rgb(127,209,148)" stroke-width="1.51"/><path d="M983,3340L1259,3157L986,3145Z" fill="rgb(79,188,159)" stroke="rgb(79,188,159)" stroke-width="1.51"/><path d="M1451,3160L1739,3359L1754,3141Z" fill="rgb(35,176,166)" stroke="rgb(35,176,166)" stroke-width="1.51"/><path d="M1754,3141L1965,3412L1989,3084Z" fill="rgb(14,170,168)" stroke="rgb(14,170,168)" stroke-width="1.51"/><path d="M1281,3361L1478,3366L1451,3160Z" fill="rgb(53,180,164)" stroke="rgb(53,180,164)" stroke-width="1.51"/><path d="M448,632L474,864L710,830Z" fill="rgb(176,234,128)" stroke="rgb(176,234,128)" stroke-width="1.51"/><path d="M710,830L474,864L773,1084Z" fill="rgb(164,231,132)" stroke="rgb(164,231,132)" stroke-width="1.51"/><path d="M465,1135L238,1083L276,1422Z" fill="rgb(174,232,131)" stroke="rgb(174,232,131)" stroke-width="1.51"/><path d="M-25,1423L-44,1666L225,1650Z" fill="rgb(183,231,133)" stroke="rgb(183,231,133)" stroke-width="1.51"/><path d="M708,3175L983,3340L986,3145Z" fill="rgb(93,191,156)" stroke="rgb(93,191,156)" stroke-width="1.51"/><path d="M474,864L238,1083L465,1135Z" fill="rgb(177,233,129)" stroke="rgb(177,233,129)" stroke-width="1.51"/><path d="M-25,1423L225,1650L276,1422Z" fill="rgb(177,230,133)" stroke="rgb(177,230,133)" stroke-width="1.51"/><path d="M-298,2170L-46,2337L8,2156Z" fill="rgb(172,221,140)" stroke="rgb(172,221,140)" stroke-width="1.51"/><path d="M2227,1108L2235,877L2024,864Z" fill="rgb(111,197,153)" stroke="rgb(111,197,153)" stroke-width="1.51"/><path d="M2024,864L1975,622L1738,886Z" fill="rgb(121,206,150)" stroke="rgb(121,206,150)" stroke-width="1.51"/><path d="M2468,1092L2235,877L2227,1108Z" fill="rgb(107,193,153)" stroke="rgb(107,193,153)" stroke-width="1.51"/><path d="M2468,1092L2227,1108L2446,1427Z" fill="rgb(96,189,155)" stroke="rgb(96,189,155)" stroke-width="1.51"/><path d="M2700,2089L2751,1842L2488,1889Z" fill="rgb(56,177,163)" stroke="rgb(56,177,163)" stroke-width="1.51"/><path d="M-41,2633L244,2881L262,2609Z" fill="rgb(154,211,146)" stroke="rgb(154,211,146)" stroke-width="1.51"/><path d="M262,2609L244,2881L510,2678Z" fill="rgb(139,208,148)" stroke="rgb(139,208,148)" stroke-width="1.51"/><path d="M244,2881L477,3110L539,2845Z" fill="rgb(131,203,149)" stroke="rgb(131,203,149)" stroke-width="1.51"/><path d="M708,3175L780,3388L983,3340Z" fill="rgb(99,191,155)" stroke="rgb(99,191,155)" stroke-width="1.51"/><path d="M-235,2344L-46,2337L-298,2170Z" fill="rgb(171,220,141)" stroke="rgb(171,220,141)" stroke-width="1.51"/><path d="M8,2156L-46,2337L198,2371Z" fill="rgb(167,219,142)" stroke="rgb(167,219,142)" stroke-width="1.51"/><path d="M2735,1377L2468,1092L2446,1427Z" fill="rgb(90,185,156)" stroke="rgb(90,185,156)" stroke-width="1.51"/><path d="M1478,3366L1739,3359L1451,3160Z" fill="rgb(40,176,165)" stroke="rgb(40,176,165)" stroke-width="1.51"/><path d="M2498,3165L2530,2841L2266,2835Z" fill="rgb(2,162,168)" stroke="rgb(2,162,168)" stroke-width="1.51"/><path d="M-24,1126L-25,1423L276,1422Z" fill="rgb(188,234,130)" stroke="rgb(188,234,130)" stroke-width="1.51"/><path d="M2260,3155L2266,2835L1989,3084Z" fill="rgb(2,167,169)" stroke="rgb(2,167,169)" stroke-width="1.51"/><path d="M2728,2636L2787,2339L2481,2390Z" fill="rgb(30,169,166)" stroke="rgb(30,169,166)" stroke-width="1.51"/><path d="M2751,1842L2785,1670L2499,1650Z" fill="rgb(69,180,160)" stroke="rgb(69,180,160)" stroke-width="1.51"/><path d="M2223,595L2024,864L2235,877Z" fill="rgb(120,200,151)" stroke="rgb(120,200,151)" stroke-width="1.51"/><path d="M2223,595L1975,622L2024,864Z" fill="rgb(125,203,150)" stroke="rgb(125,203,150)" stroke-width="1.51"/><path d="M1509,338L1210,392L1482,630Z" fill="rgb(152,221,141)" stroke="rgb(152,221,141)" stroke-width="1.51"/><path d="M2728,2636L2481,2390L2536,2667Z" fill="rgb(24,167,167)" stroke="rgb(24,167,167)" stroke-width="1.51"/><path d="M2700,2089L2787,2339L2751,1842Z" fill="rgb(45,174,164)" stroke="rgb(45,174,164)" stroke-width="1.51"/><path d="M2751,1842L2787,2339L2785,1670Z" fill="rgb(55,176,163)" stroke="rgb(55,176,163)" stroke-width="1.51"/><path d="M2227,3389L2260,3155L1989,3084Z" fill="rgb(2,164,169)" stroke="rgb(2,164,169)" stroke-width="1.51"/><path d="M968,677L710,601L710,830Z" fill="rgb(165,231,132)" stroke="rgb(165,231,132)" stroke-width="1.51"/><path d="M474,864L238,895L238,1083Z" fill="rgb(186,235,127)" stroke="rgb(186,235,127)" stroke-width="1.51"/><path d="M1210,392L968,677L1263,659Z" fill="rgb(155,225,138)" stroke="rgb(155,225,138)" stroke-width="1.51"/><path d="M1210,392L1263,659L1482,630Z" fill="rgb(149,222,141)" stroke="rgb(149,222,141)" stroke-width="1.51"/><path d="M2785,1670L2735,1377L2499,1650Z" fill="rgb(76,182,159)" stroke="rgb(76,182,159)" stroke-width="1.51"/><path d="M513,3329L780,3388L708,3175Z" fill="rgb(111,193,152)" stroke="rgb(111,193,152)" stroke-width="1.51"/><path d="M983,3340L1200,3615L1281,3361Z" fill="rgb(73,182,160)" stroke="rgb(73,182,160)" stroke-width="1.51"/><path d="M1281,3361L1529,3622L1478,3366Z" fill="rgb(50,176,164)" stroke="rgb(50,176,164)" stroke-width="1.51"/><path d="M1960,3641L1965,3412L1739,3359Z" fill="rgb(16,166,168)" stroke="rgb(16,166,168)" stroke-width="1.51"/><path d="M-46,2337L-41,2633L198,2371Z" fill="rgb(166,217,143)" stroke="rgb(166,217,143)" stroke-width="1.51"/><path d="M223,3167L513,3329L477,3110Z" fill="rgb(131,199,149)" stroke="rgb(131,199,149)" stroke-width="1.51"/><path d="M246,673L238,895L474,864Z" fill="rgb(191,237,125)" stroke="rgb(191,237,125)" stroke-width="1.51"/><path d="M238,1083L-24,1126L276,1422Z" fill="rgb(187,234,129)" stroke="rgb(187,234,129)" stroke-width="1.51"/><path d="M2746,2919L2728,2636L2530,2841Z" fill="rgb(3,163,169)" stroke="rgb(3,163,169)" stroke-width="1.51"/><path d="M2530,2841L2728,2636L2536,2667Z" fill="rgb(12,164,168)" stroke="rgb(12,164,168)" stroke-width="1.51"/><path d="M1739,3359L1965,3412L1754,3141Z" fill="rgb(23,170,168)" stroke="rgb(23,170,168)" stroke-width="1.51"/><path d="M1529,3622L1739,3359L1478,3366Z" fill="rgb(39,173,165)" stroke="rgb(39,173,165)" stroke-width="1.51"/><path d="M1509,338L1482,630L1713,638Z" fill="rgb(142,216,144)" stroke="rgb(142,216,144)" stroke-width="1.51"/><path d="M477,3110L513,3329L708,3175Z" fill="rgb(119,197,151)" stroke="rgb(119,197,151)" stroke-width="1.51"/><path d="M223,3167L477,3110L244,2881Z" fill="rgb(139,203,148)" stroke="rgb(139,203,148)" stroke-width="1.51"/><path d="M2715,845L2469,843L2468,1092Z" fill="rgb(111,190,152)" stroke="rgb(111,190,152)" stroke-width="1.51"/><path d="M2468,1092L2469,843L2235,877Z" fill="rgb(111,192,152)" stroke="rgb(111,192,152)" stroke-width="1.51"/><path d="M-37,925L-24,1126L238,1083Z" fill="rgb(200,237,126)" stroke="rgb(200,237,126)" stroke-width="1.51"/><path d="M-298,1928L35,1891L-44,1666Z" fill="rgb(180,227,136)" stroke="rgb(180,227,136)" stroke-width="1.51"/><path d="M443,396L448,632L710,601Z" fill="rgb(188,237,125)" stroke="rgb(188,237,125)" stroke-width="1.51"/><path d="M710,601L448,632L710,830Z" fill="rgb(176,234,128)" stroke="rgb(176,234,128)" stroke-width="1.51"/><path d="M238,895L-37,925L238,1083Z" fill="rgb(197,237,126)" stroke="rgb(197,237,126)" stroke-width="1.51"/><path d="M-298,1928L8,2156L35,1891Z" fill="rgb(176,225,138)" stroke="rgb(176,225,138)" stroke-width="1.51"/><path d="M-46,2337L-235,2344L-41,2633Z" fill="rgb(169,217,142)" stroke="rgb(169,217,142)" stroke-width="1.51"/><path d="M-298,1928L-44,1666L-267,1634Z" fill="rgb(182,229,135)" stroke="rgb(182,229,135)" stroke-width="1.51"/><path d="M-295,2853L-2,2906L-41,2633Z" fill="rgb(165,211,145)" stroke="rgb(165,211,145)" stroke-width="1.51"/><path d="M-41,2633L-2,2906L244,2881Z" fill="rgb(160,210,146)" stroke="rgb(160,210,146)" stroke-width="1.51"/><path d="M-2,2906L223,3167L244,2881Z" fill="rgb(152,206,147)" stroke="rgb(152,206,147)" stroke-width="1.51"/><path d="M-267,1634L-44,1666L-25,1423Z" fill="rgb(187,231,133)" stroke="rgb(187,231,133)" stroke-width="1.51"/><path d="M2469,843L2223,595L2235,877Z" fill="rgb(120,196,150)" stroke="rgb(120,196,150)" stroke-width="1.51"/><path d="M1740,357L1509,338L1713,638Z" fill="rgb(146,215,145)" stroke="rgb(146,215,145)" stroke-width="1.51"/><path d="M-245,1384L-267,1634L-25,1423Z" fill="rgb(189,233,131)" stroke="rgb(189,233,131)" stroke-width="1.51"/><path d="M1740,357L1713,638L1975,622Z" fill="rgb(138,211,147)" stroke="rgb(138,211,147)" stroke-width="1.51"/><path d="M1021,91L953,372L1210,392Z" fill="rgb(174,230,134)" stroke="rgb(174,230,134)" stroke-width="1.51"/><path d="M1210,392L953,372L968,677Z" fill="rgb(164,228,135)" stroke="rgb(164,228,135)" stroke-width="1.51"/><path d="M-298,1928L-298,2170L8,2156Z" fill="rgb(173,224,139)" stroke="rgb(173,224,139)" stroke-width="1.51"/><path d="M950,3630L983,3340L780,3388Z" fill="rgb(92,187,156)" stroke="rgb(92,187,156)" stroke-width="1.51"/><path d="M950,3630L1200,3615L983,3340Z" fill="rgb(80,183,158)" stroke="rgb(80,183,158)" stroke-width="1.51"/><path d="M1200,3615L1529,3622L1281,3361Z" fill="rgb(59,177,162)" stroke="rgb(59,177,162)" stroke-width="1.51"/><path d="M2227,3389L1989,3084L1965,3412Z" fill="rgb(2,165,169)" stroke="rgb(2,165,169)" stroke-width="1.51"/><path d="M2464,3331L2498,3165L2260,3155Z" fill="rgb(2,158,168)" stroke="rgb(2,158,168)" stroke-width="1.51"/><path d="M2260,3155L2498,3165L2266,2835Z" fill="rgb(2,162,168)" stroke="rgb(2,162,168)" stroke-width="1.51"/><path d="M2001,362L1740,357L1975,622Z" fill="rgb(141,209,147)" stroke="rgb(141,209,147)" stroke-width="1.51"/><path d="M2735,1377L2781,1136L2468,1092Z" fill="rgb(96,187,155)" stroke="rgb(96,187,155)" stroke-width="1.51"/><path d="M2469,843L2518,676L2223,595Z" fill="rgb(123,194,149)" stroke="rgb(123,194,149)" stroke-width="1.51"/><path d="M2785,1670L2781,1136L2735,1377Z" fill="rgb(84,184,157)" stroke="rgb(84,184,157)" stroke-width="1.51"/><path d="M1960,3641L2227,3389L1965,3412Z" fill="rgb(2,162,168)" stroke="rgb(2,162,168)" stroke-width="1.51"/><path d="M953,372L770,389L968,677Z" fill="rgb(171,231,132)" stroke="rgb(171,231,132)" stroke-width="1.51"/><path d="M-24,1126L-245,1384L-25,1423Z" fill="rgb(194,235,129)" stroke="rgb(194,235,129)" stroke-width="1.51"/><path d="M-267,1634L-249,1141L-298,1928Z" fill="rgb(187,231,132)" stroke="rgb(187,231,132)" stroke-width="1.51"/><path d="M2498,3165L2746,2919L2530,2841Z" fill="rgb(2,160,168)" stroke="rgb(2,160,168)" stroke-width="1.51"/><path d="M2728,2636L2746,2919L2787,2339Z" fill="rgb(19,166,168)" stroke="rgb(19,166,168)" stroke-width="1.51"/><path d="M230,419L246,673L448,632Z" fill="rgb(202,240,123)" stroke="rgb(202,240,123)" stroke-width="1.51"/><path d="M448,632L246,673L474,864Z" fill="rgb(189,237,125)" stroke="rgb(189,237,125)" stroke-width="1.51"/><path d="M-24,1126L-249,1141L-245,1384Z" fill="rgb(198,236,128)" stroke="rgb(198,236,128)" stroke-width="1.51"/><path d="M756,3603L950,3630L780,3388Z" fill="rgb(98,187,155)" stroke="rgb(98,187,155)" stroke-width="1.51"/><path d="M1454,3873L1698,3669L1529,3622Z" fill="rgb(40,173,165)" stroke="rgb(40,173,165)" stroke-width="1.51"/><path d="M756,3603L780,3388L513,3329Z" fill="rgb(110,190,152)" stroke="rgb(110,190,152)" stroke-width="1.51"/><path d="M32,633L-37,925L238,895Z" fill="rgb(207,240,123)" stroke="rgb(207,240,123)" stroke-width="1.51"/><path d="M440,3583L756,3603L513,3329Z" fill="rgb(118,191,150)" stroke="rgb(118,191,150)" stroke-width="1.51"/><path d="M1454,3873L1529,3622L1200,3615Z" fill="rgb(54,176,163)" stroke="rgb(54,176,163)" stroke-width="1.51"/><path d="M1529,3622L1698,3669L1739,3359Z" fill="rgb(35,170,166)" stroke="rgb(35,170,166)" stroke-width="1.51"/><path d="M2285,394L2001,362L2223,595Z" fill="rgb(139,202,148)" stroke="rgb(139,202,148)" stroke-width="1.51"/><path d="M2223,595L2001,362L1975,622Z" fill="rgb(135,204,149)" stroke="rgb(135,204,149)" stroke-width="1.51"/><path d="M1478,121L1289,128L1509,338Z" fill="rgb(165,223,140)" stroke="rgb(165,223,140)" stroke-width="1.51"/><path d="M2715,845L2518,676L2469,843Z" fill="rgb(118,191,150)" stroke="rgb(118,191,150)" stroke-width="1.51"/><path d="M-235,2344L-281,2661L-41,2633Z" fill="rgb(168,216,143)" stroke="rgb(168,216,143)" stroke-width="1.51"/><path d="M-36,3427L249,3366L223,3167Z" fill="rgb(152,200,146)" stroke="rgb(152,200,146)" stroke-width="1.51"/><path d="M-298,2170L-281,2661L-235,2344Z" fill="rgb(170,218,142)" stroke="rgb(170,218,142)" stroke-width="1.51"/><path d="M2227,3389L2464,3331L2260,3155Z" fill="rgb(2,159,168)" stroke="rgb(2,159,168)" stroke-width="1.51"/><path d="M2498,3165L2779,3118L2746,2919Z" fill="rgb(2,158,168)" stroke="rgb(2,158,168)" stroke-width="1.51"/><path d="M2507,3650L2464,3331L2227,3389Z" fill="rgb(1,154,167)" stroke="rgb(1,154,167)" stroke-width="1.51"/><path d="M-25,3110L223,3167L-2,2906Z" fill="rgb(159,206,146)" stroke="rgb(159,206,146)" stroke-width="1.51"/><path d="M223,3167L249,3366L513,3329Z" fill="rgb(137,198,148)" stroke="rgb(137,198,148)" stroke-width="1.51"/><path d="M-256,3083L-25,3110L-2,2906Z" fill="rgb(164,207,145)" stroke="rgb(164,207,145)" stroke-width="1.51"/><path d="M2781,1136L2715,845L2468,1092Z" fill="rgb(106,189,153)" stroke="rgb(106,189,153)" stroke-width="1.51"/><path d="M1698,3669L1960,3641L1739,3359Z" fill="rgb(25,167,167)" stroke="rgb(25,167,167)" stroke-width="1.51"/><path d="M-37,925L-249,1141L-24,1126Z" fill="rgb(203,238,125)" stroke="rgb(203,238,125)" stroke-width="1.51"/><path d="M-245,1384L-249,1141L-267,1634Z" fill="rgb(191,234,130)" stroke="rgb(191,234,130)" stroke-width="1.51"/><path d="M770,389L443,396L710,601Z" fill="rgb(186,236,127)" stroke="rgb(186,236,127)" stroke-width="1.51"/><path d="M246,673L32,633L238,895Z" fill="rgb(204,240,122)" stroke="rgb(204,240,122)" stroke-width="1.51"/><path d="M-37,925L-223,880L-249,1141Z" fill="rgb(206,239,124)" stroke="rgb(206,239,124)" stroke-width="1.51"/><path d="M509,137L443,396L770,389Z" fill="rgb(198,238,124)" stroke="rgb(198,238,124)" stroke-width="1.51"/><path d="M750,123L770,389L953,372Z" fill="rgb(185,234,129)" stroke="rgb(185,234,129)" stroke-width="1.51"/><path d="M2454,422L2223,595L2518,676Z" fill="rgb(131,196,149)" stroke="rgb(131,196,149)" stroke-width="1.51"/><path d="M2454,422L2285,394L2223,595Z" fill="rgb(137,198,148)" stroke="rgb(137,198,148)" stroke-width="1.51"/><path d="M2726,3357L2779,3118L2498,3165Z" fill="rgb(1,156,168)" stroke="rgb(1,156,168)" stroke-width="1.51"/><path d="M2746,2919L2779,3118L2787,2339Z" fill="rgb(4,163,168)" stroke="rgb(4,163,168)" stroke-width="1.51"/><path d="M251,3591L440,3583L249,3366Z" fill="rgb(138,195,148)" stroke="rgb(138,195,148)" stroke-width="1.51"/><path d="M249,3366L440,3583L513,3329Z" fill="rgb(131,195,148)" stroke="rgb(131,195,148)" stroke-width="1.51"/><path d="M1264,3876L1200,3615L993,3909Z" fill="rgb(73,181,160)" stroke="rgb(73,181,160)" stroke-width="1.51"/><path d="M1478,121L1509,338L1766,94Z" fill="rgb(162,219,142)" stroke="rgb(162,219,142)" stroke-width="1.51"/><path d="M1509,338L1289,128L1210,392Z" fill="rgb(163,224,139)" stroke="rgb(163,224,139)" stroke-width="1.51"/><path d="M1509,338L1740,357L1766,94Z" fill="rgb(156,216,144)" stroke="rgb(156,216,144)" stroke-width="1.51"/><path d="M-281,2661L-295,2853L-41,2633Z" fill="rgb(166,213,145)" stroke="rgb(166,213,145)" stroke-width="1.51"/><path d="M32,3585L251,3591L249,3366Z" fill="rgb(149,196,146)" stroke="rgb(149,196,146)" stroke-width="1.51"/><path d="M-298,2170L-295,2853L-281,2661Z" fill="rgb(168,215,143)" stroke="rgb(168,215,143)" stroke-width="1.51"/><path d="M1766,94L1740,357L2001,362Z" fill="rgb(153,212,146)" stroke="rgb(153,212,146)" stroke-width="1.51"/><path d="M230,419L32,633L246,673Z" fill="rgb(211,241,121)" stroke="rgb(211,241,121)" stroke-width="1.51"/><path d="M1264,3876L1454,3873L1200,3615Z" fill="rgb(61,178,162)" stroke="rgb(61,178,162)" stroke-width="1.51"/><path d="M1698,3669L1722,3841L1960,3641Z" fill="rgb(25,167,167)" stroke="rgb(25,167,167)" stroke-width="1.51"/><path d="M1200,3615L950,3630L993,3909Z" fill="rgb(80,183,158)" stroke="rgb(80,183,158)" stroke-width="1.51"/><path d="M-223,645L-223,880L-37,925Z" fill="rgb(212,241,122)" stroke="rgb(212,241,122)" stroke-width="1.51"/><path d="M993,3909L950,3630L702,3857Z" fill="rgb(94,186,155)" stroke="rgb(94,186,155)" stroke-width="1.51"/><path d="M1267,-102L1021,91L1289,128Z" fill="rgb(182,229,134)" stroke="rgb(182,229,134)" stroke-width="1.51"/><path d="M1289,128L1021,91L1210,392Z" fill="rgb(174,228,135)" stroke="rgb(174,228,135)" stroke-width="1.51"/><path d="M443,396L230,419L448,632Z" fill="rgb(202,240,123)" stroke="rgb(202,240,123)" stroke-width="1.51"/><path d="M32,633L-223,645L-37,925Z" fill="rgb(215,242,120)" stroke="rgb(215,242,120)" stroke-width="1.51"/><path d="M200,125L230,419L443,396Z" fill="rgb(215,242,120)" stroke="rgb(215,242,120)" stroke-width="1.51"/><path d="M1454,3873L1722,3841L1698,3669Z" fill="rgb(36,171,166)" stroke="rgb(36,171,166)" stroke-width="1.51"/><path d="M1960,3641L2258,3677L2227,3389Z" fill="rgb(2,159,168)" stroke="rgb(2,159,168)" stroke-width="1.51"/><path d="M2464,3331L2726,3357L2498,3165Z" fill="rgb(1,155,168)" stroke="rgb(1,155,168)" stroke-width="1.51"/><path d="M2698,596L2454,422L2518,676Z" fill="rgb(131,193,148)" stroke="rgb(131,193,148)" stroke-width="1.51"/><path d="M1991,93L1766,94L2001,362Z" fill="rgb(156,211,146)" stroke="rgb(156,211,146)" stroke-width="1.51"/><path d="M1991,93L2001,362L2208,176Z" fill="rgb(153,207,147)" stroke="rgb(153,207,147)" stroke-width="1.51"/><path d="M1485,-108L1267,-102L1289,128Z" fill="rgb(178,226,137)" stroke="rgb(178,226,137)" stroke-width="1.51"/><path d="M2715,845L2698,596L2518,676Z" fill="rgb(122,192,149)" stroke="rgb(122,192,149)" stroke-width="1.51"/><path d="M2748,381L2698,596L2715,845Z" fill="rgb(128,193,149)" stroke="rgb(128,193,149)" stroke-width="1.51"/><path d="M2192,3833L2258,3677L1960,3641Z" fill="rgb(2,159,168)" stroke="rgb(2,159,168)" stroke-width="1.51"/><path d="M1021,91L750,123L953,372Z" fill="rgb(185,234,130)" stroke="rgb(185,234,130)" stroke-width="1.51"/><path d="M-295,2853L-256,3083L-2,2906Z" fill="rgb(164,208,145)" stroke="rgb(164,208,145)" stroke-width="1.51"/><path d="M-36,3427L223,3167L-25,3110Z" fill="rgb(159,203,145)" stroke="rgb(159,203,145)" stroke-width="1.51"/><path d="M702,3857L950,3630L756,3603Z" fill="rgb(100,187,154)" stroke="rgb(100,187,154)" stroke-width="1.51"/><path d="M2507,3650L2726,3357L2464,3331Z" fill="rgb(0,152,167)" stroke="rgb(0,152,167)" stroke-width="1.51"/><path d="M702,3857L756,3603L440,3583Z" fill="rgb(113,190,151)" stroke="rgb(113,190,151)" stroke-width="1.51"/><path d="M1264,3876L993,3909L1454,3873Z" fill="rgb(67,179,161)" stroke="rgb(67,179,161)" stroke-width="1.51"/><path d="M443,3846L702,3857L440,3583Z" fill="rgb(120,192,150)" stroke="rgb(120,192,150)" stroke-width="1.51"/><path d="M2208,176L2001,362L2285,394Z" fill="rgb(147,204,147)" stroke="rgb(147,204,147)" stroke-width="1.51"/><path d="M1485,-108L1289,128L1478,121Z" fill="rgb(173,224,139)" stroke="rgb(173,224,139)" stroke-width="1.51"/><path d="M2531,90L2285,394L2454,422Z" fill="rgb(146,197,147)" stroke="rgb(146,197,147)" stroke-width="1.51"/><path d="M2531,90L2208,176L2285,394Z" fill="rgb(151,200,146)" stroke="rgb(151,200,146)" stroke-width="1.51"/><path d="M-285,3362L-36,3427L-25,3110Z" fill="rgb(163,202,145)" stroke="rgb(163,202,145)" stroke-width="1.51"/><path d="M251,3591L443,3846L440,3583Z" fill="rgb(133,194,148)" stroke="rgb(133,194,148)" stroke-width="1.51"/><path d="M750,123L509,137L770,389Z" fill="rgb(197,237,126)" stroke="rgb(197,237,126)" stroke-width="1.51"/><path d="M510,-96L509,137L750,123Z" fill="rgb(209,240,122)" stroke="rgb(209,240,122)" stroke-width="1.51"/><path d="M1722,3841L2028,3890L1960,3641Z" fill="rgb(14,165,168)" stroke="rgb(14,165,168)" stroke-width="1.51"/><path d="M2258,3677L2507,3650L2227,3389Z" fill="rgb(1,155,167)" stroke="rgb(1,155,167)" stroke-width="1.51"/><path d="M1454,3873L2028,3890L1722,3841Z" fill="rgb(30,169,166)" stroke="rgb(30,169,166)" stroke-width="1.51"/><path d="M993,3909L2028,3890L1454,3873Z" fill="rgb(43,174,164)" stroke="rgb(43,174,164)" stroke-width="1.51"/><path d="M2518,3896L2507,3650L2258,3677Z" fill="rgb(0,152,167)" stroke="rgb(0,152,167)" stroke-width="1.51"/><path d="M2028,3890L2192,3833L1960,3641Z" fill="rgb(2,161,168)" stroke="rgb(2,161,168)" stroke-width="1.51"/><path d="M-36,375L-223,645L32,633Z" fill="rgb(224,243,118)" stroke="rgb(224,243,118)" stroke-width="1.51"/><path d="M-223,880L-270,347L-249,1141Z" fill="rgb(213,241,121)" stroke="rgb(213,241,121)" stroke-width="1.51"/><path d="M-249,1141L-270,347L-298,1928Z" fill="rgb(201,237,126)" stroke="rgb(201,237,126)" stroke-width="1.51"/><path d="M-36,375L32,633L230,419Z" fill="rgb(222,243,119)" stroke="rgb(222,243,119)" stroke-width="1.51"/><path d="M-306,3640L32,3585L-36,3427Z" fill="rgb(162,198,145)" stroke="rgb(162,198,145)" stroke-width="1.51"/><path d="M-36,3427L32,3585L249,3366Z" fill="rgb(156,198,146)" stroke="rgb(156,198,146)" stroke-width="1.51"/><path d="M1485,-108L1478,121L1764,-73Z" fill="rgb(172,221,141)" stroke="rgb(172,221,141)" stroke-width="1.51"/><path d="M1021,91L997,-129L750,123Z" fill="rgb(193,235,129)" stroke="rgb(193,235,129)" stroke-width="1.51"/><path d="M246,3872L443,3846L251,3591Z" fill="rgb(138,195,148)" stroke="rgb(138,195,148)" stroke-width="1.51"/><path d="M702,3857L246,3872L993,3909Z" fill="rgb(112,190,152)" stroke="rgb(112,190,152)" stroke-width="1.51"/><path d="M1764,-73L1766,94L1991,93Z" fill="rgb(165,214,144)" stroke="rgb(165,214,144)" stroke-width="1.51"/><path d="M1764,-73L1478,121L1766,94Z" fill="rgb(167,218,142)" stroke="rgb(167,218,142)" stroke-width="1.51"/><path d="M1972,-157L1764,-73L1991,93Z" fill="rgb(166,213,144)" stroke="rgb(166,213,144)" stroke-width="1.51"/><path d="M200,125L-36,375L230,419Z" fill="rgb(226,244,118)" stroke="rgb(226,244,118)" stroke-width="1.51"/><path d="M2698,596L2748,381L2454,422Z" fill="rgb(137,194,148)" stroke="rgb(137,194,148)" stroke-width="1.51"/><path d="M2247,-140L1972,-157L1991,93Z" fill="rgb(164,209,145)" stroke="rgb(164,209,145)" stroke-width="1.51"/><path d="M2781,1136L2748,381L2715,845Z" fill="rgb(118,191,150)" stroke="rgb(118,191,150)" stroke-width="1.51"/><path d="M1012,-383L997,-129L1209,-412Z" fill="rgb(188,232,132)" stroke="rgb(188,232,132)" stroke-width="1.51"/><path d="M1267,-102L997,-129L1021,91Z" fill="rgb(187,232,132)" stroke="rgb(187,232,132)" stroke-width="1.51"/><path d="M509,137L200,125L443,396Z" fill="rgb(214,242,120)" stroke="rgb(214,242,120)" stroke-width="1.51"/><path d="M-295,2853L-285,3362L-256,3083Z" fill="rgb(164,206,145)" stroke="rgb(164,206,145)" stroke-width="1.51"/><path d="M-256,3083L-285,3362L-25,3110Z" fill="rgb(163,204,145)" stroke="rgb(163,204,145)" stroke-width="1.51"/><path d="M272,-86L200,125L509,137Z" fill="rgb(225,244,118)" stroke="rgb(225,244,118)" stroke-width="1.51"/><path d="M2745,3845L2759,3629L2507,3650Z" fill="rgb(0,151,167)" stroke="rgb(0,151,167)" stroke-width="1.51"/><path d="M2507,3650L2759,3629L2726,3357Z" fill="rgb(0,151,167)" stroke="rgb(0,151,167)" stroke-width="1.51"/><path d="M2726,3357L2759,3629L2779,3118Z" fill="rgb(1,153,167)" stroke="rgb(1,153,167)" stroke-width="1.51"/><path d="M-41,3919L246,3872L32,3585Z" fill="rgb(156,197,145)" stroke="rgb(156,197,145)" stroke-width="1.51"/><path d="M32,3585L246,3872L251,3591Z" fill="rgb(149,196,146)" stroke="rgb(149,196,146)" stroke-width="1.51"/><path d="M443,3846L246,3872L702,3857Z" fill="rgb(125,193,149)" stroke="rgb(125,193,149)" stroke-width="1.51"/><path d="M1012,-383L774,-164L997,-129Z" fill="rgb(194,235,129)" stroke="rgb(194,235,129)" stroke-width="1.51"/><path d="M997,-129L774,-164L750,123Z" fill="rgb(199,236,127)" stroke="rgb(199,236,127)" stroke-width="1.51"/><path d="M1712,-379L1463,-401L1485,-108Z" fill="rgb(172,222,140)" stroke="rgb(172,222,140)" stroke-width="1.51"/><path d="M1485,-108L1463,-401L1267,-102Z" fill="rgb(176,225,138)" stroke="rgb(176,225,138)" stroke-width="1.51"/><path d="M2247,-140L1991,93L2208,176Z" fill="rgb(162,206,145)" stroke="rgb(162,206,145)" stroke-width="1.51"/><path d="M774,-164L510,-96L750,123Z" fill="rgb(207,239,124)" stroke="rgb(207,239,124)" stroke-width="1.51"/><path d="M2748,381L2531,90L2454,422Z" fill="rgb(146,196,147)" stroke="rgb(146,196,147)" stroke-width="1.51"/><path d="M2028,3890L2518,3896L2192,3833Z" fill="rgb(1,157,168)" stroke="rgb(1,157,168)" stroke-width="1.51"/><path d="M2192,3833L2518,3896L2258,3677Z" fill="rgb(1,155,168)" stroke="rgb(1,155,168)" stroke-width="1.51"/><path d="M993,3909L2518,3896L2028,3890Z" fill="rgb(21,166,167)" stroke="rgb(21,166,167)" stroke-width="1.51"/><path d="M2,-93L13,123L200,125Z" fill="rgb(242,247,115)" stroke="rgb(242,247,115)" stroke-width="1.51"/><path d="M200,125L13,123L-36,375Z" fill="rgb(236,246,116)" stroke="rgb(236,246,116)" stroke-width="1.51"/><path d="M-36,375L-270,347L-223,645Z" fill="rgb(228,244,117)" stroke="rgb(228,244,117)" stroke-width="1.51"/><path d="M-243,102L-270,347L-36,375Z" fill="rgb(236,246,116)" stroke="rgb(236,246,116)" stroke-width="1.51"/><path d="M-223,645L-270,347L-223,880Z" fill="rgb(220,243,119)" stroke="rgb(220,243,119)" stroke-width="1.51"/><path d="M2531,90L2247,-140L2208,176Z" fill="rgb(161,202,145)" stroke="rgb(161,202,145)" stroke-width="1.51"/><path d="M510,-96L272,-86L509,137Z" fill="rgb(221,243,119)" stroke="rgb(221,243,119)" stroke-width="1.51"/><path d="M13,123L-243,102L-36,375Z" fill="rgb(240,246,115)" stroke="rgb(240,246,115)" stroke-width="1.51"/><path d="M516,-403L272,-86L510,-96Z" fill="rgb(221,243,119)" stroke="rgb(221,243,119)" stroke-width="1.51"/><path d="M2748,381L2738,101L2531,90Z" fill="rgb(152,197,146)" stroke="rgb(152,197,146)" stroke-width="1.51"/><path d="M2531,90L2522,-114L2247,-140Z" fill="rgb(162,199,145)" stroke="rgb(162,199,145)" stroke-width="1.51"/><path d="M2780,-118L2738,101L2748,381Z" fill="rgb(156,197,146)" stroke="rgb(156,197,146)" stroke-width="1.51"/><path d="M-285,3362L-306,3640L-36,3427Z" fill="rgb(162,199,145)" stroke="rgb(162,199,145)" stroke-width="1.51"/><path d="M-295,2853L-306,3640L-285,3362Z" fill="rgb(163,202,145)" stroke="rgb(163,202,145)" stroke-width="1.51"/><path d="M-298,2170L-306,3640L-295,2853Z" fill="rgb(164,210,145)" stroke="rgb(164,210,145)" stroke-width="1.51"/><path d="M-298,1928L-306,3640L-298,2170Z" fill="rgb(167,215,143)" stroke="rgb(167,215,143)" stroke-width="1.51"/><path d="M2518,3896L2745,3845L2507,3650Z" fill="rgb(0,151,167)" stroke="rgb(0,151,167)" stroke-width="1.51"/><path d="M1712,-379L1764,-73L1972,-157Z" fill="rgb(168,215,143)" stroke="rgb(168,215,143)" stroke-width="1.51"/><path d="M1712,-379L1485,-108L1764,-73Z" fill="rgb(170,219,141)" stroke="rgb(170,219,141)" stroke-width="1.51"/><path d="M774,-164L516,-403L510,-96Z" fill="rgb(211,240,122)" stroke="rgb(211,240,122)" stroke-width="1.51"/><path d="M1209,-412L997,-129L1267,-102Z" fill="rgb(185,230,133)" stroke="rgb(185,230,133)" stroke-width="1.51"/><path d="M1972,-343L1712,-379L1972,-157Z" fill="rgb(166,214,144)" stroke="rgb(166,214,144)" stroke-width="1.51"/><path d="M-218,3878L-41,3919L32,3585Z" fill="rgb(162,198,145)" stroke="rgb(162,198,145)" stroke-width="1.51"/><path d="M246,3872L-41,3919L993,3909Z" fill="rgb(131,193,148)" stroke="rgb(131,193,148)" stroke-width="1.51"/><path d="M993,3909L-41,3919L2518,3896Z" fill="rgb(73,181,160)" stroke="rgb(73,181,160)" stroke-width="1.51"/><path d="M1463,-401L1209,-412L1267,-102Z" fill="rgb(179,227,136)" stroke="rgb(179,227,136)" stroke-width="1.51"/><path d="M2738,101L2522,-114L2531,90Z" fill="rgb(161,198,145)" stroke="rgb(161,198,145)" stroke-width="1.51"/><path d="M2240,-345L1972,-343L1972,-157Z" fill="rgb(164,209,145)" stroke="rgb(164,209,145)" stroke-width="1.51"/><path d="M2240,-345L1972,-157L2247,-140Z" fill="rgb(164,207,145)" stroke="rgb(164,207,145)" stroke-width="1.51"/><path d="M1209,-412L765,-399L1012,-383Z" fill="rgb(191,234,130)" stroke="rgb(191,234,130)" stroke-width="1.51"/><path d="M1012,-383L765,-399L774,-164Z" fill="rgb(198,236,127)" stroke="rgb(198,236,127)" stroke-width="1.51"/><path d="M2,-93L200,125L272,-86Z" fill="rgb(239,246,115)" stroke="rgb(239,246,115)" stroke-width="1.51"/><path d="M2,-93L-243,102L13,123Z" fill="rgb(247,248,113)" stroke="rgb(247,248,113)" stroke-width="1.51"/><path d="M201,-347L2,-93L272,-86Z" fill="rgb(239,246,115)" stroke="rgb(239,246,115)" stroke-width="1.51"/><path d="M-306,3640L-218,3878L32,3585Z" fill="rgb(162,198,145)" stroke="rgb(162,198,145)" stroke-width="1.51"/><path d="M2451,-328L2240,-345L2247,-140Z" fill="rgb(163,203,145)" stroke="rgb(163,203,145)" stroke-width="1.51"/><path d="M1972,-343L2240,-345L1712,-379Z" fill="rgb(165,211,145)" stroke="rgb(165,211,145)" stroke-width="1.51"/><path d="M1712,-379L2240,-345L1463,-401Z" fill="rgb(168,215,143)" stroke="rgb(168,215,143)" stroke-width="1.51"/><path d="M765,-399L516,-403L774,-164Z" fill="rgb(207,239,124)" stroke="rgb(207,239,124)" stroke-width="1.51"/><path d="M1209,-412L516,-403L765,-399Z" fill="rgb(199,237,127)" stroke="rgb(199,237,127)" stroke-width="1.51"/><path d="M2738,101L2780,-118L2522,-114Z" fill="rgb(162,198,145)" stroke="rgb(162,198,145)" stroke-width="1.51"/><path d="M2522,-114L2451,-328L2247,-140Z" fill="rgb(162,200,145)" stroke="rgb(162,200,145)" stroke-width="1.51"/><path d="M2781,1136L2780,-118L2748,381Z" fill="rgb(137,194,148)" stroke="rgb(137,194,148)" stroke-width="1.51"/><path d="M2785,1670L2780,-118L2781,1136Z" fill="rgb(113,190,151)" stroke="rgb(113,190,151)" stroke-width="1.51"/><path d="M2787,2339L2780,-118L2785,1670Z" fill="rgb(91,185,156)" stroke="rgb(91,185,156)" stroke-width="1.51"/><path d="M2696,-325L2451,-328L2522,-114Z" fill="rgb(162,198,145)" stroke="rgb(162,198,145)" stroke-width="1.51"/><path d="M516,-403L201,-347L272,-86Z" fill="rgb(228,244,118)" stroke="rgb(228,244,118)" stroke-width="1.51"/><path d="M2,-93L-308,-161L-243,102Z" fill="rgb(249,248,113)" stroke="rgb(249,248,113)" stroke-width="1.51"/><path d="M2780,-118L2696,-325L2522,-114Z" fill="rgb(162,198,145)" stroke="rgb(162,198,145)" stroke-width="1.51"/><path d="M2451,-328L2696,-325L2240,-345Z" fill="rgb(162,199,145)" stroke="rgb(162,199,145)" stroke-width="1.51"/><path d="M2240,-345L2696,-325L1463,-401Z" fill="rgb(164,207,145)" stroke="rgb(164,207,145)" stroke-width="1.51"/><path d="M-49,-341L-308,-161L2,-93Z" fill="rgb(249,248,113)" stroke="rgb(249,248,113)" stroke-width="1.51"/><path d="M-243,102L-308,-161L-270,347Z" fill="rgb(245,247,114)" stroke="rgb(245,247,114)" stroke-width="1.51"/><path d="M-270,347L-308,-161L-298,1928Z" fill="rgb(216,242,120)" stroke="rgb(216,242,120)" stroke-width="1.51"/><path d="M-298,1928L-308,-161L-306,3640Z" fill="rgb(181,228,136)" stroke="rgb(181,228,136)" stroke-width="1.51"/><path d="M-226,-386L-49,-341L201,-347Z" fill="rgb(249,248,113)" stroke="rgb(249,248,113)" stroke-width="1.51"/><path d="M201,-347L-49,-341L2,-93Z" fill="rgb(246,247,114)" stroke="rgb(246,247,114)" stroke-width="1.51"/><path d="M516,-403L-226,-386L201,-347Z" fill="rgb(238,246,115)" stroke="rgb(238,246,115)" stroke-width="1.51"/><path d="M-49,-341L-226,-386L-308,-161Z" fill="rgb(249,248,113)" stroke="rgb(249,248,113)" stroke-width="1.51"/><rect width="2480" height="3508" style="fill: rgb(0, 0, 0); opacity: 0.2;"/></svg>
