<?xml version="1.0" encoding="UTF-8" standalone="no"?>
<!-- Created with Inkscape (http://www.inkscape.org/) -->

<svg
   xmlns:dc="http://purl.org/dc/elements/1.1/"
   xmlns:cc="http://creativecommons.org/ns#"
   xmlns:rdf="http://www.w3.org/1999/02/22-rdf-syntax-ns#"
   xmlns:svg="http://www.w3.org/2000/svg"
   xmlns="http://www.w3.org/2000/svg"
   xmlns:sodipodi="http://sodipodi.sourceforge.net/DTD/sodipodi-0.dtd"
   xmlns:inkscape="http://www.inkscape.org/namespaces/inkscape"
   version="1.1"
   id="svg4518"
   width="2296.0791"
   height="507.86575"
   viewBox="0 0 2296.0791 507.86575"
   sodipodi:docname="logo.svg"
   inkscape:version="0.92.4 (5da689c313, 2019-01-14)">
  <metadata
     id="metadata4524">
    <rdf:RDF>
      <cc:Work
         rdf:about="">
        <dc:format>image/svg+xml</dc:format>
        <dc:type
           rdf:resource="http://purl.org/dc/dcmitype/StillImage" />
        <dc:title />
      </cc:Work>
    </rdf:RDF>
  </metadata>
  <defs
     id="defs4522" />
  <sodipodi:namedview
     pagecolor="#ffffff"
     bordercolor="#666666"
     borderopacity="1"
     objecttolerance="10"
     gridtolerance="10"
     guidetolerance="10"
     inkscape:pageopacity="0"
     inkscape:pageshadow="2"
     inkscape:window-width="1920"
     inkscape:window-height="1017"
     id="namedview4520"
     showgrid="false"
     inkscape:zoom="0.2292447"
     inkscape:cx="551.78952"
     inkscape:cy="201.47411"
     inkscape:window-x="-8"
     inkscape:window-y="-8"
     inkscape:window-maximized="1"
     inkscape:current-layer="svg4518"
     fit-margin-top="0"
     fit-margin-left="0"
     fit-margin-right="0"
     fit-margin-bottom="0" />
  <style
     id="style4635"
     type="text/css">
	.st0{fill:none;stroke:#FFFFFF;stroke-width:5;stroke-miterlimit:10;}
	.st1{fill:none;}
	.st2{fill:#FFFFFF;}
	.st3{fill:none;stroke:#FFFFFF;stroke-width:10;stroke-miterlimit:10;}
	.st4{fill:none;stroke:#2C2C2C;stroke-width:5;stroke-miterlimit:10;}
	.st5{fill:#2C2C2C;}
	.st6{fill:none;stroke:#2C2C2C;stroke-width:10;stroke-miterlimit:10;}
</style>
  <path
     style="color:#000000;font-style:normal;font-variant:normal;font-weight:normal;font-stretch:normal;font-size:medium;line-height:normal;font-family:sans-serif;font-variant-ligatures:normal;font-variant-position:normal;font-variant-caps:normal;font-variant-numeric:normal;font-variant-alternates:normal;font-feature-settings:normal;text-indent:0;text-align:start;text-decoration:none;text-decoration-line:none;text-decoration-style:solid;text-decoration-color:#000000;letter-spacing:normal;word-spacing:normal;text-transform:none;writing-mode:lr-tb;direction:ltr;text-orientation:mixed;dominant-baseline:auto;baseline-shift:baseline;text-anchor:start;white-space:normal;shape-padding:0;clip-rule:nonzero;display:inline;overflow:visible;visibility:visible;opacity:1;isolation:auto;mix-blend-mode:normal;color-interpolation:sRGB;color-interpolation-filters:linearRGB;solid-color:#000000;solid-opacity:1;vector-effect:none;fill:#ffffff;fill-opacity:1;fill-rule:nonzero;stroke:none;stroke-width:5;stroke-linecap:butt;stroke-linejoin:miter;stroke-miterlimit:10;stroke-dasharray:none;stroke-dashoffset:0;stroke-opacity:1;color-rendering:auto;image-rendering:auto;shape-rendering:auto;text-rendering:auto;enable-background:accumulate"
     d="m 2054.9785,18.180972 c -133.1247,1.2e-5 -241.1028,107.976018 -241.1028,241.100708 0,133.12467 107.9781,241.10069 241.1028,241.1007 133.1247,-1e-5 241.1007,-107.97603 241.1007,-241.1007 0,-133.12469 -107.976,-241.100696 -241.1007,-241.100708 z m 0,5.415712 c 130.1979,1.1e-5 235.685,105.487186 235.685,235.684996 0,130.1978 -105.4871,235.68498 -235.685,235.68499 -130.1978,-1e-5 -235.6871,-105.48719 -235.6871,-235.68499 0,-130.19781 105.4893,-235.684985 235.6871,-235.684996 z m -21.3412,13.833334 -20.878,3.355203 c -4.2415,0.681125 -7.1019,4.694373 -6.4207,8.935924 l 3.3553,20.827218 5.0561,-0.816587 -2.105,-13.073866 18.3795,-2.961718 -0.8144,-5.087806 -18.3499,2.951139 -0.4231,-2.652852 c -0.2272,-1.424173 0.7652,-2.796025 2.1894,-3.023067 l 20.8252,-3.355202 z m 42.4456,0.503492 c -7.3148,0.0018 -13.6118,5.554559 -14.3665,12.985015 -0.805,7.92582 4.9852,15.03811 12.911,15.843071 l 14.377,1.463935 0.5246,-5.128002 -14.3749,-1.46605 c -5.0877,-0.516004 -8.813,-5.088072 -8.297,-10.186191 0.5161,-5.087799 5.0879,-8.8133 10.1756,-8.307617 l 14.3749,1.466049 0.5268,-5.130117 -14.377,-1.463934 c -0.4954,-0.05031 -0.9869,-0.07629 -1.4745,-0.07615 z m 30.2688,5.502448 c -6.2173,0.238533 -11.823,4.5139 -13.4483,10.83777 -1.9814,7.709098 2.6741,15.602683 10.3935,17.584138 7.7091,1.981454 15.6047,-2.671979 17.5862,-10.391396 1.9814,-7.709099 -2.6845,-15.6048 -10.3935,-17.586255 -0.9637,-0.247681 -1.9302,-0.390885 -2.8877,-0.43791 -0.4189,-0.02057 -0.8358,-0.02225 -1.2502,-0.0064 z m -117.1783,3.98351 c -1.421,0.0259 -2.8613,0.263874 -4.2797,0.734082 -7.5647,2.507779 -11.6722,10.702832 -9.1644,18.267449 2.5078,7.564617 10.7028,11.670063 18.2675,9.162284 7.5645,-2.50778 11.6721,-10.700716 9.1643,-18.265334 -2.0375,-6.146249 -7.8301,-10.010697 -13.9877,-9.898481 z m 117.2628,1.171994 c 0.9117,-0.04582 1.8446,0.04353 2.7734,0.283478 4.9537,1.27969 7.9563,6.358008 6.6766,11.311644 -1.2797,4.953638 -6.3559,7.956247 -11.3095,6.676557 -4.9536,-1.27969 -7.9459,-6.355892 -6.6766,-11.309529 1.0398,-4.02483 4.5856,-6.763595 8.5361,-6.96215 z m 24.3728,1.057755 -11.5781,26.471407 4.726,2.06474 7.3789,-16.873328 3.0972,5.593415 2.5492,4.675282 5.1596,-1.30104 6.2027,-1.516821 -7.3789,16.873326 4.7261,2.06474 11.5697,-26.481984 -6.3063,1.567595 -11.3625,2.82844 -5.6463,-10.268697 z m -141.5425,2.925754 c 3.9586,-0.07065 7.685,2.414095 8.993,6.363461 1.6202,4.860756 -1.0227,10.133277 -5.8938,11.743209 -4.8609,1.609933 -10.1333,-1.030945 -11.7433,-5.891702 -1.6098,-4.860756 1.031,-10.135392 5.8918,-11.745324 0.9114,-0.301862 1.8387,-0.45334 2.7523,-0.469644 z m 174.7117,12.358822 -15.6041,24.334739 4.3454,2.78613 7.1716,-11.186829 11.6416,7.461412 0.021,-0.02961 c 0.073,0.04128 0.1348,0.092 0.2074,0.133277 0.7017,0.350883 1.4325,0.577993 2.2065,0.681195 2.9306,0.402482 5.9658,-0.886734 7.6582,-3.528674 1.1556,-1.806013 1.4765,-3.911333 1.0534,-5.851508 l 0.02,-0.103656 c -0.423,-1.929856 -1.5873,-3.716176 -3.3932,-4.872025 z m -220.959,3.397513 c -1.5037,-0.02636 -3.0285,0.378117 -4.379,1.256616 l -9.8245,6.399424 c -3.5913,2.342657 -4.5831,7.172597 -2.2403,10.774304 l 0.093,0.133277 c 0.898,1.382891 2.1464,2.394113 3.5499,2.961717 0.4954,0.216722 0.9902,0.381509 1.5062,0.49503 1.9196,0.381842 3.9641,0.03066 5.7289,-1.114875 l 8.7201,-5.675919 c 1.8369,-1.197129 4.3347,-0.700944 5.5215,1.13603 1.1868,1.836974 0.6395,4.313781 -1.1974,5.51091 l -7.5756,4.933374 c -1.8268,1.197129 -4.2821,0.67979 -5.4792,-1.157185 l -4.3242,2.817863 c 2.7452,4.220908 8.4004,5.408578 12.6213,2.663427 l 7.5756,-4.933373 c 4.2209,-2.745139 5.4064,-8.400234 2.6612,-12.621145 -1.1868,-1.836974 -2.9505,-3.095636 -4.8804,-3.714841 -0.1652,-0.04128 -0.3006,-0.09411 -0.476,-0.135392 -2.3839,-0.619205 -5.015,-0.278649 -7.2647,1.186802 l -8.7201,5.67592 c -1.2075,0.784326 -2.8692,0.433172 -3.6535,-0.774278 l -0.093,-0.133277 c -0.7843,-1.207449 -0.4331,-2.869164 0.7743,-3.65349 l 9.8245,-6.397309 c 1.2074,-0.784325 2.8691,-0.435287 3.6534,0.772162 l 0.093,0.135393 4.2924,-2.868635 -0.093,-0.135393 c -1.4641,-2.251068 -3.908,-3.493196 -6.4143,-3.537137 z m 222.4758,3.784652 11.0219,7.059465 c 0.7637,0.495363 1.0648,1.176976 1.1677,1.631059 0.093,0.402483 0.1542,1.227786 -0.3618,2.022431 -0.5573,0.866886 -1.5888,1.330768 -2.6106,1.165647 l -0.031,0.04231 c -0.3715,-0.04128 -0.7333,-0.176249 -1.0429,-0.37233 l -11.0219,-7.067926 z m -110.5165,2.824209 c -101.7768,-3.6e-5 -184.3415,82.564713 -184.3415,184.341513 0,101.77679 82.5647,184.34154 184.3415,184.34151 101.7767,-3e-5 184.3415,-82.56476 184.3415,-184.34151 0,-101.77676 -82.5648,-184.341489 -184.3415,-184.341513 z m 4.7853,5.481293 c 75.8014,1.988127 139.8194,51.07589 163.9057,119.0843 z m -11.0747,0.05711 -161.9108,117.62672 c 24.3002,-66.83402 87.287,-115.050216 161.9108,-117.62672 z m 5.5765,2.642275 167.923,122.003715 -64.1402,197.41749 h -207.574 L 1886.332,205.12456 Z m 137.6903,0.338482 -9.6067,10.793344 c -5.3044,5.954689 -4.7678,15.109909 1.1868,20.404119 5.9444,5.30452 15.0973,4.76788 20.3915,-1.1868 l 9.6087,-10.79546 -3.8397,-3.43559 -9.6086,10.79334 c -3.4056,3.81842 -9.2874,4.16933 -13.1162,0.7637 -3.8184,-3.40563 -4.1694,-9.28742 -0.7638,-13.11618 l 9.6087,-10.795458 z m -275.7825,1.516823 -21.3625,19.40137 3.4674,3.8185 8.7709,-7.96702 15.9552,17.57567 3.8185,-3.46943 -15.9551,-17.573572 8.773,-7.967019 z m 302.7086,23.33411 -4.0152,3.23884 7.4508,9.21729 -18.462,14.93341 3.241,4.01313 18.462,-14.92284 7.4508,9.21517 4.0152,-3.23884 z m -329.3661,1.7326 -3.241,4.01524 14.4384,11.43435 -22.7651,5.67591 -6.317,1.58876 22.5917,17.88454 3.1986,-4.04487 -14.3347,-11.35183 22.7671,-5.67592 6.3148,-1.58876 z m -22.2701,29.10311 -10.2073,18.46207 c -2.0744,3.75651 -0.6806,8.49265 3.0759,10.56698 l 11.6311,6.43116 c 3.7566,2.08466 8.5032,0.7419 10.5776,-3.0146 l 10.2074,-18.46209 -4.5209,-2.49841 -10.2074,18.46419 c -0.7017,1.25906 -2.3206,1.73202 -3.5899,1.03025 l -4.7685,-2.62957 8.9888,-16.25561 -4.5208,-2.49629 -8.9888,16.25347 -2.3525,-1.30104 c -1.259,-0.70177 -1.7336,-2.32065 -1.0112,-3.59002 l 10.2073,-18.4642 z m 371.1476,0.90331 c -1.2555,0.0252 -2.524,0.35432 -3.6916,1.01545 l -11.5676,6.55386 c -3.7359,2.11561 -5.0772,6.86285 -2.9616,10.59872 l 10.4019,18.35841 4.4891,-2.54919 -10.4019,-18.35842 c -0.7224,-1.25906 -0.2691,-2.89064 0.99,-3.60272 l 4.7366,-2.68246 9.1644,16.16251 4.4892,-2.54919 -9.1645,-16.16252 2.3334,-1.32008 c 1.2591,-0.71209 2.8892,-0.25814 3.6219,1.01122 l 10.4019,18.34784 4.4891,-2.53862 -10.402,-18.35841 c -1.4616,-2.56841 -4.1662,-3.98196 -6.9283,-3.9264 z m -183.4044,10.08677 c -8.4934,0 -15.367,6.88397 -15.367,15.36708 0,7.4511 5.3055,13.65283 12.3335,15.06668 v 10.45486 0.0825 23.11621 c -0.052,2.09498 -0.9303,4.12791 -2.1791,5.67592 0,0 -20.4545,19.37092 -20.5267,19.42252 -2.6523,2.74514 -4.9123,7.06912 -4.9123,11.18683 v 14.6457 h -6.1709 v 18.40072 h 18.4007 v -18.40069 h -6.1604 c 0,0 0.011,-3.85951 0.011,-14.82975 0.052,-2.09498 0.9179,-4.13874 2.1769,-5.69708 l 19.3506,-18.31822 v 71.05371 h -7.5947 l 10.6284,18.42189 10.6283,-18.40073 h -7.5842 v -94.04721 l 19.3507,18.30764 c 1.2487,1.55832 2.1252,3.6021 2.1768,5.69707 0,8.48311 -2e-4,13.52826 0.011,15.37555 -3.5811,1.25905 -6.171,4.6337 -6.171,8.64821 0,5.07748 4.1168,9.20671 9.2047,9.20671 5.0877,0 9.2067,-4.11891 9.2067,-9.20671 0,-4.01451 -2.5815,-7.38916 -6.1626,-8.64821 v -15.19996 c 0,-4.11771 -2.2598,-8.43137 -4.9121,-11.18683 -0.062,-0.062 -20.5269,-19.43309 -20.5269,-19.43309 -1.2487,-1.55833 -2.1146,-3.59152 -2.1662,-5.6865 v -10.64103 c 7.0279,-1.41384 12.3228,-7.61558 12.3228,-15.06668 0,-8.49343 -6.884,-15.36708 -15.3671,-15.36708 z m 203.8001,19.15385 -27.0807,10.10368 1.8066,4.82971 12.4562,-4.64354 1.8067,4.82971 c 0.6502,1.73378 0.2778,3.59043 -0.7955,4.96299 l -0.184,0.20733 -4.0978,4.47853 -3.9115,4.28392 2.0223,5.41782 3.9117,-4.2839 6.2428,-6.72734 c 0.3509,0.70177 0.8052,1.33136 1.3625,1.868 2.1053,2.08466 5.305,2.86885 8.2461,1.77492 2.0125,-0.75336 3.5186,-2.24969 4.3856,-4.06602 0.8255,-1.80602 0.9607,-3.9216 0.2073,-5.93401 z m -399.3961,6.31692 c -6.1442,-0.22696 -11.985,3.53395 -14.1401,9.63827 l -4.8191,13.56044 27.2457,9.62981 4.8086,-13.6239 c 1.321,-3.73586 1.0001,-7.6567 -0.6305,-10.99009 -0.1753,-0.3612 -0.3599,-0.73386 -0.5458,-1.0641 -1.6614,-2.85866 -4.3143,-5.14916 -7.6581,-6.33596 -1.4086,-0.4973 -2.8427,-0.7621 -4.2607,-0.81447 z m 396.373,0.30886 4.5717,12.26152 c 0.3199,0.85657 0.1537,1.57815 -0.042,2.00126 -0.1755,0.37153 -0.6187,1.07235 -1.5062,1.40259 -0.9701,0.3612 -2.0742,0.11474 -2.7967,-0.6283 -0.2683,-0.24768 -0.4751,-0.56725 -0.6092,-0.91814 l -4.6118,-12.2615 z m -396.5359,4.85299 c 0.9128,0.0339 1.8362,0.20537 2.7418,0.52465 4.8298,1.70281 7.3681,7.01707 5.6653,11.84687 l -3.095,8.76244 -17.5143,-6.18152 3.0971,-8.76245 c 1.3835,-3.92421 5.1502,-6.3369 9.1051,-6.18999 z m 280.4112,19.42886 -84.6692,156.19673 -84.5929,-156.07826 -0.055,-0.10149 -0.011,-0.0148 -9.5305,5.14493 0.011,0.0148 93.8039,174.45783 94.5656,-174.45783 z m -301.2193,6.16248 -0.8991,5.07723 14.2331,2.49843 c 5.0465,0.88753 8.4315,5.70663 7.544,10.75315 -0.8875,5.0362 -5.7088,8.43144 -10.7553,7.54391 l -14.2311,-2.49842 -0.8863,5.08781 14.231,2.49842 c 7.8432,1.38289 15.3569,-3.88117 16.7294,-11.73475 1.383,-7.85357 -3.8914,-15.35478 -11.7346,-16.72735 z m 388.2621,2.46035 c 4.6926,16.00384 7.2202,32.93553 7.2202,50.46132 0,57.695 -27.2864,108.98407 -69.6553,141.69913 z m -344.0839,2.34187 61.1849,188.31868 c -41.2713,-32.77135 -67.7324,-83.38045 -67.7324,-140.19923 0,-16.67293 2.2855,-32.80889 6.5475,-48.11945 z m 385.22,12.36094 c -0.263,1.7e-4 -0.5284,0.0131 -0.7954,0.0402 l -0.165,0.0211 c -1.6409,0.16512 -3.1067,0.81592 -4.2522,1.80665 -0.4231,0.34056 -0.8059,0.71238 -1.136,1.11487 -1.2075,1.53769 -1.8352,3.50902 -1.6184,5.60399 l 1.062,10.34909 c 0.2271,2.17754 -1.3511,4.16053 -3.5287,4.38757 -2.1775,0.21673 -4.1288,-1.40402 -4.3558,-3.58156 l -0.9287,-8.99939 c -0.2167,-2.17754 1.3616,-4.11822 3.5392,-4.34526 l -0.5268,-5.12801 c -5.0053,0.516 -8.6586,5.00536 -8.1426,10.01061 l 0.9308,8.98881 c 0.5161,5.00525 4.9929,8.65862 10.0086,8.14261 2.1776,-0.21671 4.1184,-1.20779 5.5426,-2.64228 0.1135,-0.13417 0.2271,-0.22759 0.3406,-0.36175 1.641,-1.82665 2.5485,-4.3231 2.2699,-6.99599 l -1.062,-10.35122 c -0.1445,-1.43449 0.9286,-2.75588 2.3631,-2.90036 l 0.165,-0.0211 c 1.4345,-0.14448 2.7558,0.92855 2.9003,2.36303 l 1.1974,11.66282 c 0.1548,1.43449 -0.92,2.75588 -2.3545,2.90036 l -0.1651,0.0191 0.5374,5.11954 0.165,-0.0211 c 4.2726,-0.43344 7.4101,-4.28263 6.9664,-8.55513 l -1.1974,-11.6607 c -0.4062,-4.00548 -3.8148,-6.96887 -7.7597,-6.96638 z m -434.962,18.94653 -0.4527,28.85559 5.1597,0.0825 0.1861,-11.84687 23.7361,0.37022 0.082,-5.15973 -23.7361,-0.37022 0.1862,-11.84898 z m 429.0873,13.85238 c -7.3073,0.33469 -13.3285,6.17077 -13.7446,13.63024 l -0.7954,14.4278 5.1513,0.28982 0.7933,-14.4278 c 0.2786,-5.10844 4.6758,-9.04108 9.7842,-8.76244 5.1086,0.27865 9.0412,4.6758 8.7625,9.78424 l -0.7954,14.42779 5.1491,0.28771 0.7955,-14.4278 c 0.4438,-7.95677 -5.6672,-14.77734 -13.624,-15.2211 -0.4973,-0.0277 -0.9894,-0.0308 -1.4765,-0.009 z m -408.5288,18.38591 c -0.3078,0.0126 -0.6172,0.0401 -0.9287,0.0846 -2.1671,0.3096 -4.0558,1.37196 -5.4284,2.85805 -0.1029,0.14448 -0.2165,0.23843 -0.3194,0.38291 -1.5686,1.88858 -2.3747,4.42625 -1.9929,7.07851 l 1.4767,10.30043 c 0.2064,1.43449 -0.8059,2.78704 -2.2403,2.99344 l -0.1651,0.0191 c -1.4345,0.20639 -2.787,-0.80372 -2.9934,-2.23821 l -1.6607,-11.59936 c -0.2063,-1.43448 0.8059,-2.78704 2.2404,-2.99345 l 0.1649,-0.0211 -0.7636,-5.11953 -0.1651,0.0211 c -4.2518,0.60889 -7.224,4.5825 -6.6151,8.83438 l 1.6606,11.59935 c 0.609,4.25187 4.572,7.18389 8.8238,6.57501 l 0.165,-0.0211 c 1.6306,-0.22703 3.076,-0.93964 4.1803,-1.97165 0.4025,-0.35087 0.7632,-0.73196 1.0831,-1.15507 1.1456,-1.5893 1.6934,-3.58068 1.3941,-5.66534 l -1.4766,-10.30043 c -0.3096,-2.16722 1.1858,-4.21971 3.3531,-4.52931 2.1672,-0.30961 4.1796,1.23664 4.4892,3.40386 l 1.2798,8.94862 c 0.32,2.16721 -1.1858,4.17951 -3.3531,4.48911 l 0.732,5.10896 c 4.9846,-0.71208 8.4421,-5.33698 7.7301,-10.32158 l -1.2799,-8.94651 c -0.6676,-4.67305 -4.773,-8.00336 -9.3908,-7.81469 z m 393.0093,13.00617 -0.825,5.09838 28.5341,4.59066 0.825,-5.09627 z m 4.267,10.3787 c -3.3201,0.11524 -6.3252,2.34736 -7.2393,5.70978 l -5.532,20.35122 4.9841,1.35181 5.5321,-20.35123 c 0.3716,-1.39321 1.8477,-2.23925 3.2409,-1.85741 l 5.2634,1.42373 -4.8719,17.92685 4.9756,1.35182 4.8699,-17.92685 2.5915,0.70235 c 1.3932,0.37153 2.2289,1.84615 1.8574,3.26 l -5.532,20.35122 4.9735,1.35182 5.5321,-20.35123 c 1.1249,-4.13835 -1.3514,-8.40973 -5.4897,-9.53462 l -12.8285,-3.48847 c -0.7778,-0.21091 -1.5608,-0.29738 -2.3271,-0.27079 z m -379.3304,24.12107 -4.7366,2.03302 8.3076,19.3802 c 0.578,1.32098 -0.052,2.89972 -1.3836,3.46733 l -5.0031,2.14724 -7.3176,-17.07007 -4.7366,2.03301 7.3154,17.07007 -2.4667,1.0641 c -1.3313,0.5676 -2.8978,-0.0626 -3.4757,-1.38354 l -8.3182,-19.38233 -4.7472,2.03301 8.3076,19.38232 c 1.6925,3.94227 6.2841,5.74793 10.2264,4.05544 l 12.2191,-5.24224 c 3.9526,-1.69248 5.8092,-6.26508 4.1168,-10.20735 z m 365.4865,4.74722 -2.1579,4.68586 16.6047,7.64546 -20.7743,10.87796 -5.7584,3.03364 26.245,12.08592 2.1981,-4.68585 -16.7189,-7.69835 20.7742,-10.87797 5.7585,-3.02306 z m -346.4871,34.07666 -26.5539,2.21918 -5.7774,0.47387 3.0442,4.9228 5.7774,-0.47388 13.8609,-1.15718 -7.2033,11.88919 -2.9935,4.9651 3.0443,4.91222 2.9934,-4.96511 z m 337.0477,0.11848 c -4.6392,-0.003 -9.2021,2.22072 -11.9949,6.34231 l -8.1025,11.96109 4.2733,2.88979 8.1003,-11.9611 c 2.8689,-4.23123 8.659,-5.34624 12.9005,-2.47726 4.2313,2.86897 5.3462,8.65884 2.4772,12.90039 l -8.1024,11.96111 4.2733,2.88979 8.1024,-11.96111 c 4.4687,-6.59453 2.7338,-15.59492 -3.8607,-20.06352 -2.473,-1.67572 -5.2829,-2.47944 -8.0665,-2.48149 z m -327.7584,13.57524 -22.9533,17.55452 3.1373,4.09774 22.9533,-17.55452 z m 305.8459,10.35755 c -1.9917,0.0465 -3.9632,0.85123 -5.439,2.40957 l -14.4997,15.31419 3.7466,3.54983 14.4997,-15.3142 c 0.9907,-1.05267 2.6834,-1.09438 3.736,-0.10366 l 3.9518,3.74657 -12.7756,13.48851 3.7445,3.54983 12.7777,-13.4885 1.9504,1.84684 c 1.0524,1.00104 1.0944,2.69367 0.104,3.736 l -14.4998,15.3163 3.7445,3.54983 14.4997,-15.31631 c 2.9516,-3.11666 2.7867,-8.04912 -0.33,-11.00066 l -9.6489,-9.14325 c -1.5583,-1.47577 -3.5699,-2.18734 -5.5617,-2.14089 z m -307.0962,9.54095 -3.7444,3.54984 12.7755,13.4885 -1.9505,1.84684 c -1.0526,0.99071 -2.7452,0.949 -3.736,-0.10365 l -14.4997,-15.31419 -3.7466,3.54982 14.5315,15.33535 c 2.9515,3.11665 7.884,3.22021 11.0006,0.26867 l 15.3142,-14.49972 -3.518,-3.71484 -9.6193,9.11151 z m 56.9813,13.32773 h 199.1925 c -28.4666,19.10215 -62.7235,30.24971 -99.5963,30.24972 -36.8727,1e-5 -71.1297,-11.14757 -99.5962,-30.24972 z m 20.2412,38.3204 c -0.2345,0.002 -0.4713,0.0214 -0.7087,0.055 -0.9597,0.13416 -1.8065,0.4949 -2.5703,1.08314 -0.7533,0.58825 -1.3206,1.33139 -1.6819,2.20859 -0.372,0.90818 -0.4958,1.83669 -0.3617,2.78614 0.1342,0.94944 0.4856,1.8064 1.0429,2.55977 0.5573,0.75337 1.3009,1.32114 2.2193,1.70298 1.3725,0.56761 2.755,0.56761 4.1379,0 1.3829,-0.57792 2.3539,-1.54709 2.9214,-2.92998 0.3613,-0.88752 0.4836,-1.80708 0.3598,-2.75652 -0.1238,-0.94945 -0.4841,-1.80481 -1.0621,-2.5788 -0.5882,-0.774 -1.3322,-1.35263 -2.2403,-1.72414 -0.6656,-0.2786 -1.3529,-0.41343 -2.0563,-0.40618 z m 158.693,0.0233 c -0.7087,-0.004 -1.4005,0.13389 -2.0815,0.41253 -0.8979,0.36121 -1.6307,0.92898 -2.2087,1.70299 -0.5778,0.76368 -0.9297,1.63148 -1.0535,2.58092 -0.124,0.95978 6e-4,1.86688 0.3617,2.7544 0.3716,0.90816 0.9393,1.65183 1.703,2.22975 0.7637,0.57793 1.6098,0.9302 2.5386,1.07468 0.9288,0.13417 1.8571,0.0202 2.7756,-0.36175 1.3725,-0.56761 2.3415,-1.52805 2.9194,-2.91094 0.5785,-1.38289 0.5804,-2.75506 0.013,-4.13795 -0.3612,-0.88753 -0.9203,-1.62035 -1.684,-2.20859 -0.7533,-0.58825 -1.6086,-0.94899 -2.5682,-1.08315 -0.24,-0.0336 -0.4789,-0.0514 -0.7151,-0.0529 z m -34.8594,4.05544 -14.2711,2.22976 c -7.8743,1.22809 -13.2824,8.6289 -12.0543,16.5031 1.228,7.87423 8.6268,13.28017 16.501,12.05208 l 14.2734,-2.22763 -0.7954,-5.09839 -14.2735,2.22975 c -5.0567,0.78432 -9.8228,-2.69439 -10.6071,-7.75124 -0.7844,-5.05683 2.6923,-9.82496 7.7492,-10.60929 l 14.2733,-2.22976 z m -82.8202,1.11488 c -3.609,0.17849 -6.7163,2.89327 -7.2942,6.60463 l -3.2305,20.84837 5.0562,0.78274 2.033,-13.09501 18.4007,2.84747 0.7954,-5.09839 -18.3584,-2.84748 0.4126,-2.65284 c 0.2167,-1.43449 1.5883,-2.42533 3.0124,-2.2086 l 20.8463,3.23038 0.7954,-5.09838 -20.8991,-3.23039 c -0.5302,-0.0825 -1.0541,-0.10799 -1.5698,-0.0825 z m 32.6763,3.43771 c -4.2932,0 -7.7618,3.50885 -7.7618,7.802 v 0.16502 c 0,1.65122 0.4954,3.17877 1.3623,4.41718 0.2889,0.45409 0.6186,0.86605 0.9901,1.23758 1.4036,1.36225 3.3041,2.18744 5.4094,2.18744 h 10.4019 c 2.1879,0 4.0047,1.77661 4.0047,3.96447 0,2.18785 -1.8168,3.96235 -4.0047,3.96235 h -9.0396 c -2.1878,0 -3.9644,-1.7745 -3.9644,-3.96235 h -5.1597 c 0,5.02588 4.088,9.11151 9.1241,9.11151 h 9.0396 c 5.0362,0 9.1221,-4.08589 9.1221,-9.12209 0,-2.18786 -0.783,-4.21093 -2.0626,-5.77958 -0.1239,-0.12384 -0.2062,-0.2485 -0.33,-0.37233 -1.6513,-1.81633 -4.0462,-2.9723 -6.7295,-2.9723 h -10.4019 c -1.4448,0 -2.6423,-1.19746 -2.6423,-2.64227 v -0.165 c 0,-1.44482 1.1975,-2.64016 2.6423,-2.64016 h 11.7221 c 1.4448,0 2.6422,1.19534 2.6422,2.64016 v 0.165 l 5.1597,-0.0296 v -0.16501 c 0,-4.29316 -3.5088,-7.80201 -7.8019,-7.80201 z"
     id="circle4638"
     inkscape:connector-curvature="0" />
  <g
     transform="matrix(0.28664966,0,0,0.28536189,40.884414,115.02103)"
     id="g994"
     style="stroke-width:3.4964416">
    <path
       style="stroke-width:3.4964416;fill:#ffffff"
       d="m 894.3,20.1 c 4.3,4.8 6.5,10.6 6.5,17.5 V 893 c 0,6.9 -2.2,12.5 -6.5,16.9 -4.3,4.3 -9.5,6.5 -15.5,6.5 H 750.5 c -6,0 -11.2,-2.2 -15.5,-6.5 -4.3,-4.3 -6.5,-9.9 -6.5,-16.9 V 379.7 c 0,-7.8 -1.7,-11.7 -5.2,-11.7 -2.6,0 -6.5,3 -11.7,9.1 -13.8,20.8 -36.5,53.1 -68,97.2 -31.5,44.1 -54.6,76 -69.3,95.9 -8.6,11.2 -15.8,18.6 -21.4,22 -5.6,3.5 -14.9,5.2 -27.9,5.2 h -22 c -15.6,0 -26.1,-1.3 -31.8,-3.9 -5.6,-2.6 -11.9,-8.2 -18.8,-16.8 L 311.1,378.4 c -3.5,-7.8 -7.3,-11.7 -11.7,-11.7 -3.5,0 -5.2,3.9 -5.2,11.7 v 160.7 c 0,6.9 -2.2,12.5 -6.5,16.9 -4.3,4.4 -9.5,6.5 -15.5,6.5 h -127 c -6.1,0 -11.5,-2.4 -16.2,-7.1 -4.7,-4.7 -7.1,-10.1 -7.1,-16.2 V 37.6 c 0,-6.9 2.4,-12.8 7.1,-17.5 4.7,-4.7 10.1,-7.1 16.2,-7.1 h 129.6 c 2.6,0 5.8,1.5 9.7,4.5 3.9,3 6.7,6.3 8.4,9.7 l 197,325.3 c 0.9,1.7 3.2,4.3 7.1,7.8 3.9,3.5 8.8,5.2 14.9,5.2 h 1.3 c 6,0 10.8,-2.2 14.3,-6.5 3.5,-4.3 5.6,-7.3 6.5,-9.1 L 729.7,28.5 c 2.6,-4.3 5.2,-8 7.8,-11 2.6,-3 6,-4.5 10.4,-4.5 h 1.3 129.6 c 6,0 11.2,2.3 15.5,7.1 z"
       id="path6"
       inkscape:connector-curvature="0" />
    <path
       style="stroke-width:3.4964416;fill:#ffffff"
       d="m 1083.5,913.7 c -2.6,-3.5 -3.5,-7.3 -2.6,-11.7 L 1310.3,29.8 c 1.7,-5.2 5,-9.7 9.7,-13.6 4.7,-3.9 10.1,-5.8 16.2,-5.8 h 269.6 c 5.2,0 10.4,1.7 15.5,5.2 5.2,3.5 8.6,7.8 10.4,13 l 229.4,872.2 v 3.9 c 0,9.5 -4.3,14.3 -13,14.3 h -127 c -5.2,0 -10.6,-1.9 -16.2,-5.8 -5.6,-3.9 -8.9,-8.4 -9.7,-13.6 l -63.5,-241.1 c -1.7,-7.8 -6.1,-14.3 -13,-19.4 -6.9,-5.1 -14.3,-7.8 -22,-7.8 h -251.4 c -7.8,0 -15.1,2.6 -22,7.8 -6.9,5.2 -11.2,11.7 -13,19.4 l -63.5,239.8 c -0.9,6 -4.1,11 -9.7,14.9 -5.6,3.9 -11,5.8 -16.2,5.8 h -127 c -4.3,-0.1 -7.8,-1.8 -10.4,-5.3 z m 473.1,-421.2 c 8.6,0 15.3,-3 20.1,-9.1 4.8,-6.1 6.3,-13 4.5,-20.7 l -72.6,-267 c -0.9,-6.9 -4.8,-13 -11.7,-18.1 -6.9,-5.1 -14.3,-7.8 -22,-7.8 h -7.8 c -7.8,0 -15.1,2.6 -22,7.8 -6.9,5.2 -10.8,11.2 -11.7,18.1 l -71.3,267 -1.3,6.5 c 0,6.9 2.2,12.5 6.5,16.9 4.3,4.3 10.4,6.5 18.1,6.5 h 171.2 z"
       id="path8"
       inkscape:connector-curvature="0" />
    <path
       style="stroke-width:3.4964416;fill:#ffffff"
       d="m 2049.7,911.8 c -4.8,-4.8 -7.1,-10.1 -7.1,-16.2 V 33.7 c 0,-6 2.4,-11.4 7.1,-16.2 4.7,-4.8 10.6,-7.1 17.5,-7.1 h 272.2 c 53.6,0 103,12.8 148.4,38.2 45.4,25.5 81.2,60.3 107.6,104.3 26.3,44.1 39.5,92.5 39.5,145.2 0,44.9 -10.4,86.8 -31.1,125.7 -20.7,38.9 -48.8,72.6 -84.2,101.1 -5.2,4.3 -7.8,9.9 -7.8,16.8 0,2.6 0.4,4.8 1.3,6.5 0.9,1.7 1.3,3 1.3,3.9 l 150.3,335.7 c 2.6,6.1 3.9,11.7 3.9,16.9 0,9.5 -5.6,14.3 -16.9,14.3 h -114 c -9.5,0 -16.6,-0.9 -21.4,-2.6 -4.8,-1.7 -8.9,-6 -12.3,-13 L 2367.9,600.1 c -1.7,-5.2 -5,-8.6 -9.7,-10.4 -4.8,-1.7 -13.2,-3 -25.3,-3.9 h -103.7 c -13,0 -21.8,1.7 -26.6,5.2 -4.8,3.5 -7.1,9.9 -7.1,19.4 v 285.1 c 0,6.1 -2.4,11.5 -7.1,16.2 -4.7,4.7 -10.6,7.1 -17.5,7.1 h -103.7 c -6.9,0.1 -12.8,-2.3 -17.5,-7 z m 289.7,-493.2 c 33.7,0 62.6,-11.9 86.8,-35.6 24.2,-23.8 36.3,-52 36.3,-84.9 0,-33.7 -12.1,-62.2 -36.3,-85.5 -24.2,-23.3 -53.1,-35 -86.8,-35 h -120.5 c -15.6,0 -23.3,8.6 -23.3,25.9 v 194.4 c 0,6.1 1.7,11 5.2,14.9 3.5,3.9 8.2,5.8 14.3,5.8 z"
       id="path10"
       inkscape:connector-curvature="0" />
    <path
       style="stroke-width:3.4964416;fill:#ffffff"
       d="m 2870.1,908.8 c -5.6,-5.2 -8.4,-11.7 -8.4,-19.5 v -854 c 0,-6.9 2.8,-13.2 8.4,-18.8 5.6,-5.6 11.9,-8.4 18.8,-8.4 h 133.5 c 7.8,0 14.2,2.8 19.4,8.4 5.2,5.6 7.8,11.9 7.8,18.8 v 683 c 0,6.9 2.6,13.2 7.8,18.8 5.2,5.6 11.2,8.4 18.1,8.4 h 313.6 c 7.8,0 14.3,2.6 19.4,7.8 5.1,5.2 7.8,11.2 7.8,18.1 v 117.9 c 0,7.8 -2.6,14.3 -7.8,19.5 -5.2,5.2 -11.7,7.8 -19.4,7.8 h -500.3 c -6.9,0 -13.1,-2.6 -18.7,-7.8 z"
       id="path12"
       inkscape:connector-curvature="0" />
    <path
       style="stroke-width:3.4964416;fill:#ffffff"
       d="m 3637.3,906.6 c -4.8,-4.8 -7.1,-10.1 -7.1,-16.2 V 36.3 c 0,-6.9 2.4,-12.5 7.1,-16.8 4.8,-4.3 10.1,-6.5 16.2,-6.5 h 580.6 c 6.9,0 12.5,2.2 16.8,6.5 4.3,4.3 6.5,9.9 6.5,16.8 v 108.9 c 0,6.1 -2.2,11.5 -6.5,16.2 -4.3,4.7 -9.9,7.1 -16.8,7.1 h -418.6 c -6.1,0 -11.5,2.2 -16.2,6.5 -4.8,4.3 -7.1,9.9 -7.1,16.8 v 190.5 3.9 c 0,7.8 1.7,13.2 5.2,16.2 3.5,3 11.7,4.5 24.6,4.5 h 324 c 6,0 11.2,2 15.5,5.8 4.3,3.8 6.5,8.9 6.5,14.9 v 110.2 c 0,6.1 -2.2,11 -6.5,14.9 -4.3,3.9 -9.5,5.8 -15.5,5.8 h -325.3 c -11.2,0 -18.8,3.3 -22.7,9.7 -3.9,6.5 -5.8,13.2 -5.8,20.1 v 137.4 c 0,8.7 2.4,16 7.1,22 4.7,6 14.5,9.1 29.2,9.1 h 414.7 c 6,0 11.5,2.4 16.2,7.1 4.7,4.7 7.1,10.6 7.1,17.5 v 108.9 c 0,6.1 -2.2,11.5 -6.5,16.2 -4.3,4.7 -9.9,7.1 -16.8,7.1 h -589.7 c -6.1,0.1 -11.5,-2.3 -16.2,-7 z"
       id="path14"
       inkscape:connector-curvature="0" />
    <path
       style="stroke-width:3.4964416;fill:#ffffff"
       d="m 4723.3,909.2 c -4.8,-4.8 -7.1,-10.1 -7.1,-16.2 V 675.2 584.5 c 0,-18.1 -4.3,-36.7 -13,-55.7 C 4691.1,508 4632.4,394 4527,186.6 L 4449.2,35 c -1.7,-3.5 -2.6,-6.5 -2.6,-9.1 0,-10.4 6.5,-15.6 19.4,-15.6 h 133.5 c 8.6,0 14.9,1.5 18.8,4.5 3.9,3 7.5,8 11,14.9 l 171.1,353.8 173.7,-357.7 c 2.6,-4.3 5.4,-8 8.4,-11 3,-3 8.4,-4.5 16.2,-4.5 h 136.1 c 18.1,0 24.2,6.9 18.2,20.7 -25.9,51 -67.2,131.8 -123.8,242.4 -56.6,110.6 -100.4,195.7 -131.5,255.3 -8.7,15.6 -13.4,34.1 -14.3,55.7 V 893 c 0,6.1 -2.2,11.5 -6.5,16.2 -4.3,4.7 -9.9,7.1 -16.8,7.1 h -120.5 c -6.2,0 -11.6,-2.4 -16.3,-7.1 z"
       id="path16"
       inkscape:connector-curvature="0" />
    <g
       id="g22"
       style="stroke-width:3.4964416;fill:#ffffff">
      <path
         inkscape:connector-curvature="0"
         id="path20"
         d="m 295,901 c 0,9.4 -7.7,17 -17.3,17 H 139.3 c -9.6,0 -17.3,-7.6 -17.3,-17 0,-9.4 7.7,-17 17.3,-17 h 138.4 c 9.6,0 17.3,7.6 17.3,17 z"
         style="stroke-width:3.4964416;fill:#ffffff" />
    </g>
    <g
       id="g31"
       style="stroke-width:3.4964416;fill:#ffffff">
      <g
         id="g27"
         style="stroke-width:3.4964416;fill:#ffffff">
        <g
           id="g25"
           style="stroke-width:3.4964416;fill:#ffffff">
          <line
             y2="850.70001"
             x2="327.70001"
             y1="850.70001"
             x1="91.199997"
             class="st0"
             id="SVGID_1_"
             style="fill:#ffffff;stroke:#ffffff;stroke-width:17.48220825;stroke-miterlimit:10" />
        </g>
      </g>
      <path
         inkscape:connector-curvature="0"
         id="path29"
         d="m 344.6,850.7 c 0,9.3 -7.6,16.9 -16.9,16.9 H 91.2 c -9.3,0 -16.9,-7.6 -16.9,-16.9 0,-9.3 7.6,-16.9 16.9,-16.9 h 236.5 c 9.4,0 16.9,7.6 16.9,16.9 z"
         style="stroke-width:3.4964416;fill:#ffffff" />
    </g>
    <g
       id="g35"
       style="stroke-width:3.4964416;fill:#ffffff">
      <path
         inkscape:connector-curvature="0"
         id="path33"
         d="m 376.4,799.5 c 0,9.3 -7.6,16.9 -19.9,16.5 H 52.4 c -6.3,0.4 -13.9,-7.2 -13.9,-16.5 0,-9.3 7.6,-16.9 16.9,-16.9 h 304.1 c 9.4,0 16.9,7.5 16.9,16.9 z"
         style="stroke-width:3.4964416;fill:#ffffff" />
    </g>
    <g
       id="g39"
       style="stroke-width:3.4964416;fill:#ffffff">
      <path
         inkscape:connector-curvature="0"
         id="path37"
         d="m 410.2,746.3 c 0,9.3 -7.6,16.9 -16.9,16.9 H 21.7 c -9.3,0 -16.9,-7.6 -16.9,-16.9 0,-9.3 7.6,-16.9 16.9,-16.9 h 371.6 c 9.4,0 16.9,7.5 16.9,16.9 z"
         style="stroke-width:3.4964416;fill:#ffffff" />
    </g>
    <g
       id="g43"
       style="stroke-width:3.4964416;fill:#ffffff">
      <path
         inkscape:connector-curvature="0"
         id="path41"
         d="m 378.4,693.1 c 0,9.3 -7.6,16.9 -16.9,16.9 H 57.4 c -9.3,0 -16.9,-7.6 -16.9,-16.9 0,-9.3 7.6,-16.9 16.9,-16.9 h 304.1 c 9.4,0 16.9,7.6 16.9,16.9 z"
         style="stroke-width:3.4964416;fill:#ffffff" />
    </g>
    <g
       id="g52"
       style="stroke-width:3.4964416;fill:#ffffff">
      <g
         id="g48"
         style="stroke-width:3.4964416;fill:#ffffff">
        <g
           id="g46"
           style="stroke-width:3.4964416;fill:#ffffff">
          <line
             y2="642.90002"
             x2="323.79999"
             y1="642.90002"
             x1="87.300003"
             class="st0"
             id="SVGID_3_"
             style="fill:#ffffff;stroke:#ffffff;stroke-width:17.48220825;stroke-miterlimit:10" />
        </g>
      </g>
      <path
         inkscape:connector-curvature="0"
         id="path50"
         d="m 340.6,642.9 c 0,9.3 -7.6,16.9 -16.9,16.9 H 87.2 c -9.3,0 -16.9,-7.6 -16.9,-16.9 0,-9.3 7.6,-16.9 16.9,-16.9 h 236.5 c 9.4,0 16.9,7.5 16.9,16.9 z"
         style="stroke-width:3.4964416;fill:#ffffff" />
    </g>
    <g
       id="g56"
       style="stroke-width:3.4964416;fill:#ffffff">
      <path
         inkscape:connector-curvature="0"
         id="path54"
         d="m 295,592.7 c 0,9.3 -7.7,16.9 -17.3,16.9 H 139.3 c -9.6,0 -17.3,-7.6 -17.3,-16.9 0,-9.3 7.7,-16.9 17.3,-16.9 h 138.4 c 9.6,0 17.3,7.5 17.3,16.9 z"
         style="stroke-width:3.4964416;fill:#ffffff" />
    </g>
    <g
       id="g58"
       style="stroke-width:3.4964416" />
    <g
       id="g60"
       style="stroke-width:3.4964416" />
    <g
       id="g62"
       style="stroke-width:3.4964416" />
    <g
       id="g64"
       style="stroke-width:3.4964416" />
    <g
       id="g66"
       style="stroke-width:3.4964416" />
    <g
       id="g68"
       style="stroke-width:3.4964416" />
    <g
       id="g70"
       style="stroke-width:3.4964416" />
    <g
       id="g72"
       style="stroke-width:3.4964416" />
    <g
       id="g74"
       style="stroke-width:3.4964416" />
    <g
       id="g76"
       style="stroke-width:3.4964416" />
    <g
       id="g78"
       style="stroke-width:3.4964416" />
    <g
       id="g80"
       style="stroke-width:3.4964416" />
    <g
       id="g82"
       style="stroke-width:3.4964416" />
    <g
       id="g84"
       style="stroke-width:3.4964416" />
    <g
       id="g86"
       style="stroke-width:3.4964416" />
  </g>
</svg>
